<mxfile host="app.diagrams.net" modified="2024-06-16T05:00:10.656Z" agent="Mozilla/5.0 (X11; Linux x86_64) AppleWebKit/537.36 (KHTML, like Gecko) Chrome/121.0.0.0 Safari/537.36" etag="EVNUz1NxR2FvRwI03zOG" version="24.5.4" type="device" pages="6">
  <diagram name="global-architecture" id="NeFMGHIJKbKid0x10_Jw">
    <mxGraphModel dx="1659" dy="1124" grid="0" gridSize="10" guides="1" tooltips="1" connect="1" arrows="1" fold="1" page="0" pageScale="1" pageWidth="827" pageHeight="1169" math="0" shadow="0">
      <root>
        <mxCell id="0" />
        <mxCell id="1" parent="0" />
        <mxCell id="7ISPcb02RUtmdeXWyQOw-6" value="" style="whiteSpace=wrap;html=1;aspect=fixed;fillColor=none;strokeColor=default;comic=0;enumerate=0;backgroundOutline=0;movable=1;arcSize=20;shadow=1;" vertex="1" parent="1">
          <mxGeometry x="-135" y="271.64" width="159" height="159" as="geometry" />
        </mxCell>
        <mxCell id="1Ko-Gbq0illkobinJ41p-1" value="" style="rounded=0;whiteSpace=wrap;html=1;" vertex="1" parent="1">
          <mxGeometry x="175" y="57" width="1418" height="743" as="geometry" />
        </mxCell>
        <mxCell id="1Ko-Gbq0illkobinJ41p-2" value="" style="shape=cylinder3;whiteSpace=wrap;html=1;boundedLbl=1;backgroundOutline=1;size=15;" vertex="1" parent="1">
          <mxGeometry x="1448" y="303.5" width="121" height="119" as="geometry" />
        </mxCell>
        <mxCell id="1Ko-Gbq0illkobinJ41p-3" value="" style="rounded=0;whiteSpace=wrap;html=1;sketch=0;fillColor=none;dashed=1;strokeWidth=2;" vertex="1" parent="1">
          <mxGeometry x="263" y="91" width="1133" height="543" as="geometry" />
        </mxCell>
        <mxCell id="1Ko-Gbq0illkobinJ41p-4" value="" style="image;html=1;image=img/lib/clip_art/networking/Email_128x128.png;sketch=0;fontSize=15;fillColor=none;" vertex="1" parent="1">
          <mxGeometry x="1288" y="176" width="52" height="43" as="geometry" />
        </mxCell>
        <mxCell id="1Ko-Gbq0illkobinJ41p-5" value="" style="endArrow=classic;html=1;rounded=0;fontSize=15;endSize=6;strokeWidth=3;strokeColor=#C73500;fillColor=#fa6800;edgeStyle=entityRelationEdgeStyle;flowAnimation=1;entryX=0;entryY=0.5;entryDx=0;entryDy=0;" edge="1" parent="1" source="1Ko-Gbq0illkobinJ41p-39" target="1Ko-Gbq0illkobinJ41p-55">
          <mxGeometry width="50" height="50" relative="1" as="geometry">
            <mxPoint x="267" y="350" as="sourcePoint" />
            <mxPoint x="465.0000000000002" y="161.5" as="targetPoint" />
          </mxGeometry>
        </mxCell>
        <mxCell id="1Ko-Gbq0illkobinJ41p-6" value="/customers" style="edgeLabel;html=1;align=center;verticalAlign=middle;resizable=0;points=[];fontSize=15;" vertex="1" connectable="0" parent="1Ko-Gbq0illkobinJ41p-5">
          <mxGeometry x="-0.5046" y="1" relative="1" as="geometry">
            <mxPoint x="62" y="-38" as="offset" />
          </mxGeometry>
        </mxCell>
        <mxCell id="1Ko-Gbq0illkobinJ41p-7" value="" style="endArrow=classic;html=1;rounded=0;fontSize=15;endSize=6;strokeWidth=3;strokeColor=#C73500;fillColor=#fa6800;edgeStyle=entityRelationEdgeStyle;entryX=0;entryY=0.75;entryDx=0;entryDy=0;flowAnimation=1;" edge="1" parent="1" source="1Ko-Gbq0illkobinJ41p-39" target="1Ko-Gbq0illkobinJ41p-62">
          <mxGeometry width="50" height="50" relative="1" as="geometry">
            <mxPoint x="260.99999999999955" y="353" as="sourcePoint" />
            <mxPoint x="486" y="528.5" as="targetPoint" />
          </mxGeometry>
        </mxCell>
        <mxCell id="1Ko-Gbq0illkobinJ41p-8" value="/orders" style="edgeLabel;html=1;align=center;verticalAlign=middle;resizable=0;points=[];fontSize=15;" vertex="1" connectable="0" parent="1Ko-Gbq0illkobinJ41p-7">
          <mxGeometry x="0.2804" y="-3" relative="1" as="geometry">
            <mxPoint x="-88" y="-53" as="offset" />
          </mxGeometry>
        </mxCell>
        <mxCell id="1Ko-Gbq0illkobinJ41p-9" style="edgeStyle=orthogonalEdgeStyle;rounded=0;orthogonalLoop=1;jettySize=auto;html=1;strokeWidth=3;fillColor=#fa6800;strokeColor=#C73500;flowAnimation=1;entryX=0;entryY=0.5;entryDx=0;entryDy=0;" edge="1" parent="1" source="1Ko-Gbq0illkobinJ41p-39" target="1Ko-Gbq0illkobinJ41p-57">
          <mxGeometry relative="1" as="geometry">
            <mxPoint x="403" y="351" as="targetPoint" />
          </mxGeometry>
        </mxCell>
        <mxCell id="1Ko-Gbq0illkobinJ41p-10" value="/products" style="edgeLabel;html=1;align=center;verticalAlign=middle;resizable=0;points=[];fontSize=15;" vertex="1" connectable="0" parent="1Ko-Gbq0illkobinJ41p-9">
          <mxGeometry x="0.2865" y="1" relative="1" as="geometry">
            <mxPoint x="-50" y="-1" as="offset" />
          </mxGeometry>
        </mxCell>
        <mxCell id="1Ko-Gbq0illkobinJ41p-11" value="" style="shape=image;verticalLabelPosition=bottom;labelBackgroundColor=default;verticalAlign=top;aspect=fixed;imageAspect=0;image=https://www.opc-router.de/wp-content/uploads/2021/03/mongodb_thumbnail.png;" vertex="1" parent="1">
          <mxGeometry x="1286.12" y="443.5" width="55.76" height="75" as="geometry" />
        </mxCell>
        <mxCell id="1Ko-Gbq0illkobinJ41p-12" value="" style="shape=image;verticalLabelPosition=bottom;labelBackgroundColor=default;verticalAlign=top;aspect=fixed;imageAspect=0;image=https://avatars.githubusercontent.com/u/11860887?s=280&amp;v=4;" vertex="1" parent="1">
          <mxGeometry x="1477" y="345.5" width="63" height="63" as="geometry" />
        </mxCell>
        <mxCell id="1Ko-Gbq0illkobinJ41p-13" value="" style="shape=image;verticalLabelPosition=bottom;labelBackgroundColor=default;verticalAlign=top;aspect=fixed;imageAspect=0;image=https://static-00.iconduck.com/assets.00/kafka-icon-2048x935-cvu4503l.png;imageBorder=none;perimeterSpacing=0;" vertex="1" parent="1">
          <mxGeometry x="1054" y="274" width="77.75" height="35.5" as="geometry" />
        </mxCell>
        <mxCell id="1Ko-Gbq0illkobinJ41p-14" value="Message Broker" style="shape=cylinder3;whiteSpace=wrap;html=1;boundedLbl=1;backgroundOutline=1;size=15;rotation=90;horizontal=0;verticalAlign=top;" vertex="1" parent="1">
          <mxGeometry x="1081" y="274.5" width="59" height="139" as="geometry" />
        </mxCell>
        <mxCell id="1Ko-Gbq0illkobinJ41p-15" style="edgeStyle=entityRelationEdgeStyle;rounded=0;orthogonalLoop=1;jettySize=auto;html=1;entryX=0.686;entryY=0.998;entryDx=0;entryDy=0;entryPerimeter=0;fillColor=#60a917;strokeColor=#2D7600;strokeWidth=3;flowAnimation=1;" edge="1" parent="1" source="1Ko-Gbq0illkobinJ41p-61" target="1Ko-Gbq0illkobinJ41p-14">
          <mxGeometry relative="1" as="geometry" />
        </mxCell>
        <mxCell id="1Ko-Gbq0illkobinJ41p-16" style="rounded=0;orthogonalLoop=1;jettySize=auto;html=1;exitX=0.331;exitY=-0.003;exitDx=0;exitDy=0;exitPerimeter=0;strokeWidth=3;fillColor=#1ba1e2;strokeColor=#006EAF;flowAnimation=1;" edge="1" parent="1" source="1Ko-Gbq0illkobinJ41p-61">
          <mxGeometry relative="1" as="geometry">
            <mxPoint x="577" y="376" as="targetPoint" />
          </mxGeometry>
        </mxCell>
        <mxCell id="1Ko-Gbq0illkobinJ41p-17" style="edgeStyle=entityRelationEdgeStyle;rounded=0;orthogonalLoop=1;jettySize=auto;html=1;entryX=0;entryY=0.5;entryDx=0;entryDy=0;exitX=1;exitY=0.25;exitDx=0;exitDy=0;fillColor=#1ba1e2;strokeColor=#006EAF;strokeWidth=3;flowAnimation=1;" edge="1" parent="1" source="1Ko-Gbq0illkobinJ41p-61" target="1Ko-Gbq0illkobinJ41p-59">
          <mxGeometry relative="1" as="geometry" />
        </mxCell>
        <mxCell id="1Ko-Gbq0illkobinJ41p-18" style="rounded=0;orthogonalLoop=1;jettySize=auto;html=1;entryX=0.5;entryY=1;entryDx=0;entryDy=0;entryPerimeter=0;fillColor=#60a917;strokeColor=#2D7600;strokeWidth=3;flowAnimation=1;" edge="1" parent="1" source="1Ko-Gbq0illkobinJ41p-59" target="1Ko-Gbq0illkobinJ41p-14">
          <mxGeometry relative="1" as="geometry" />
        </mxCell>
        <mxCell id="1Ko-Gbq0illkobinJ41p-19" style="rounded=0;orthogonalLoop=1;jettySize=auto;html=1;exitX=0.75;exitY=0;exitDx=0;exitDy=0;entryX=0.75;entryY=1;entryDx=0;entryDy=0;strokeWidth=3;fillColor=#1ba1e2;strokeColor=#006EAF;flowAnimation=1;" edge="1" parent="1" source="1Ko-Gbq0illkobinJ41p-61" target="1Ko-Gbq0illkobinJ41p-55">
          <mxGeometry relative="1" as="geometry" />
        </mxCell>
        <mxCell id="1Ko-Gbq0illkobinJ41p-20" style="edgeStyle=orthogonalEdgeStyle;rounded=0;orthogonalLoop=1;jettySize=auto;html=1;entryX=0.5;entryY=0;entryDx=0;entryDy=0;entryPerimeter=0;fillColor=#60a917;strokeColor=#2D7600;strokeWidth=3;flowAnimation=1;" edge="1" parent="1" source="1Ko-Gbq0illkobinJ41p-63" target="1Ko-Gbq0illkobinJ41p-14">
          <mxGeometry relative="1" as="geometry" />
        </mxCell>
        <mxCell id="1Ko-Gbq0illkobinJ41p-21" value="" style="shape=image;verticalLabelPosition=bottom;labelBackgroundColor=default;verticalAlign=top;aspect=fixed;imageAspect=0;image=https://cdn-icons-png.flaticon.com/512/25/25231.png;" vertex="1" parent="1">
          <mxGeometry x="1086.76" y="765.25" width="29" height="29" as="geometry" />
        </mxCell>
        <mxCell id="1Ko-Gbq0illkobinJ41p-22" value="" style="sketch=0;aspect=fixed;pointerEvents=1;shadow=0;dashed=0;html=1;strokeColor=none;labelPosition=center;verticalLabelPosition=bottom;verticalAlign=top;align=center;fillColor=#00188D;shape=mxgraph.azure.code_file" vertex="1" parent="1">
          <mxGeometry x="1129.98" y="763" width="31.26" height="33.25" as="geometry" />
        </mxCell>
        <mxCell id="1Ko-Gbq0illkobinJ41p-23" value="" style="group" vertex="1" connectable="0" parent="1">
          <mxGeometry x="785.94" y="213" width="50.120000000000005" height="57.64852490606316" as="geometry" />
        </mxCell>
        <mxCell id="1Ko-Gbq0illkobinJ41p-24" value="" style="shape=image;verticalLabelPosition=bottom;labelBackgroundColor=default;verticalAlign=top;aspect=fixed;imageAspect=0;image=https://upload.wikimedia.org/wikipedia/commons/thumb/b/ba/Database-postgres.svg/1448px-Database-postgres.svg.png;container=0;" vertex="1" parent="1Ko-Gbq0illkobinJ41p-23">
          <mxGeometry x="13.99735211811253" width="36.12264788188748" height="51.04120428447361" as="geometry" />
        </mxCell>
        <mxCell id="1Ko-Gbq0illkobinJ41p-25" value="" style="sketch=0;aspect=fixed;html=1;points=[];align=center;image;fontSize=12;image=img/lib/mscae/Docker.svg;fillColor=none;container=0;" vertex="1" parent="1Ko-Gbq0illkobinJ41p-23">
          <mxGeometry y="36.67969348659003" width="25.571745633503813" height="20.968831419473126" as="geometry" />
        </mxCell>
        <mxCell id="1Ko-Gbq0illkobinJ41p-26" value="" style="group" vertex="1" connectable="0" parent="1">
          <mxGeometry x="517.94" y="226" width="50.120000000000005" height="57.64852490606316" as="geometry" />
        </mxCell>
        <mxCell id="1Ko-Gbq0illkobinJ41p-27" value="" style="shape=image;verticalLabelPosition=bottom;labelBackgroundColor=default;verticalAlign=top;aspect=fixed;imageAspect=0;image=https://upload.wikimedia.org/wikipedia/commons/thumb/b/ba/Database-postgres.svg/1448px-Database-postgres.svg.png;container=0;" vertex="1" parent="1Ko-Gbq0illkobinJ41p-26">
          <mxGeometry x="15.99735211811253" width="36.12264788188748" height="51.04120428447361" as="geometry" />
        </mxCell>
        <mxCell id="1Ko-Gbq0illkobinJ41p-28" value="" style="sketch=0;aspect=fixed;html=1;points=[];align=center;image;fontSize=12;image=img/lib/mscae/Docker.svg;fillColor=none;container=0;" vertex="1" parent="1Ko-Gbq0illkobinJ41p-26">
          <mxGeometry y="36.67969348659003" width="25.571745633503813" height="20.968831419473126" as="geometry" />
        </mxCell>
        <mxCell id="1Ko-Gbq0illkobinJ41p-29" style="edgeStyle=orthogonalEdgeStyle;rounded=0;orthogonalLoop=1;jettySize=auto;html=1;shape=link;flowAnimation=1;" edge="1" parent="1" source="1Ko-Gbq0illkobinJ41p-55">
          <mxGeometry relative="1" as="geometry">
            <mxPoint x="735.9973521181128" y="159.24" as="targetPoint" />
          </mxGeometry>
        </mxCell>
        <mxCell id="1Ko-Gbq0illkobinJ41p-30" style="edgeStyle=orthogonalEdgeStyle;rounded=0;orthogonalLoop=1;jettySize=auto;html=1;shape=link;flowAnimation=1;" edge="1" parent="1" source="1Ko-Gbq0illkobinJ41p-59" target="1Ko-Gbq0illkobinJ41p-24">
          <mxGeometry relative="1" as="geometry" />
        </mxCell>
        <mxCell id="1Ko-Gbq0illkobinJ41p-31" value="" style="group" vertex="1" connectable="0" parent="1">
          <mxGeometry x="476" y="559" width="50.120000000000005" height="57.64852490606316" as="geometry" />
        </mxCell>
        <mxCell id="1Ko-Gbq0illkobinJ41p-32" value="" style="shape=image;verticalLabelPosition=bottom;labelBackgroundColor=default;verticalAlign=top;aspect=fixed;imageAspect=0;image=https://upload.wikimedia.org/wikipedia/commons/thumb/b/ba/Database-postgres.svg/1448px-Database-postgres.svg.png;container=0;" vertex="1" parent="1Ko-Gbq0illkobinJ41p-31">
          <mxGeometry x="13.99735211811253" width="36.12264788188748" height="51.04120428447361" as="geometry" />
        </mxCell>
        <mxCell id="1Ko-Gbq0illkobinJ41p-33" value="" style="sketch=0;aspect=fixed;html=1;points=[];align=center;image;fontSize=12;image=img/lib/mscae/Docker.svg;fillColor=none;container=0;" vertex="1" parent="1Ko-Gbq0illkobinJ41p-31">
          <mxGeometry y="36.67969348659003" width="25.571745633503813" height="20.968831419473126" as="geometry" />
        </mxCell>
        <mxCell id="1Ko-Gbq0illkobinJ41p-34" style="edgeStyle=orthogonalEdgeStyle;rounded=0;orthogonalLoop=1;jettySize=auto;html=1;entryX=1;entryY=0.5;entryDx=0;entryDy=0;exitX=0.5;exitY=1;exitDx=0;exitDy=0;shape=link;flowAnimation=1;" edge="1" parent="1" source="1Ko-Gbq0illkobinJ41p-61" target="1Ko-Gbq0illkobinJ41p-32">
          <mxGeometry relative="1" as="geometry" />
        </mxCell>
        <mxCell id="1Ko-Gbq0illkobinJ41p-35" style="edgeStyle=orthogonalEdgeStyle;rounded=0;orthogonalLoop=1;jettySize=auto;html=1;entryX=0.25;entryY=1;entryDx=0;entryDy=0;shape=link;flowAnimation=1;" edge="1" parent="1" source="1Ko-Gbq0illkobinJ41p-57" target="1Ko-Gbq0illkobinJ41p-27">
          <mxGeometry relative="1" as="geometry" />
        </mxCell>
        <mxCell id="1Ko-Gbq0illkobinJ41p-36" style="edgeStyle=orthogonalEdgeStyle;rounded=0;orthogonalLoop=1;jettySize=auto;html=1;entryX=0.5;entryY=1;entryDx=0;entryDy=0;shape=link;flowAnimation=1;" edge="1" parent="1" source="1Ko-Gbq0illkobinJ41p-63" target="1Ko-Gbq0illkobinJ41p-4">
          <mxGeometry relative="1" as="geometry" />
        </mxCell>
        <mxCell id="1Ko-Gbq0illkobinJ41p-37" style="edgeStyle=orthogonalEdgeStyle;rounded=0;orthogonalLoop=1;jettySize=auto;html=1;entryX=0;entryY=0.5;entryDx=0;entryDy=0;entryPerimeter=0;strokeWidth=3;fillColor=#a20025;strokeColor=#6F0000;flowAnimation=1;" edge="1" parent="1" source="1Ko-Gbq0illkobinJ41p-3" target="1Ko-Gbq0illkobinJ41p-2">
          <mxGeometry relative="1" as="geometry" />
        </mxCell>
        <mxCell id="1Ko-Gbq0illkobinJ41p-38" value="Distributed Tracing" style="text;html=1;align=center;verticalAlign=middle;resizable=0;points=[];autosize=1;strokeColor=none;fillColor=none;fontStyle=1;fontSize=15;" vertex="1" parent="1">
          <mxGeometry x="1431" y="443" width="155" height="30" as="geometry" />
        </mxCell>
        <mxCell id="1Ko-Gbq0illkobinJ41p-39" value="&lt;b&gt;API GW&lt;/b&gt;" style="sketch=0;outlineConnect=0;dashed=0;verticalLabelPosition=bottom;verticalAlign=top;align=center;html=1;fontSize=12;fontStyle=0;aspect=fixed;pointerEvents=1;shape=mxgraph.aws4.gateway_load_balancer;labelBackgroundColor=none;labelBorderColor=none;fillColor=#1ba1e2;strokeColor=default;" vertex="1" parent="1">
          <mxGeometry x="90" y="314.5" width="73" height="73" as="geometry" />
        </mxCell>
        <mxCell id="1Ko-Gbq0illkobinJ41p-40" style="edgeStyle=orthogonalEdgeStyle;rounded=0;orthogonalLoop=1;jettySize=auto;html=1;entryX=0.5;entryY=0;entryDx=0;entryDy=0;shape=link;flowAnimation=1;" edge="1" parent="1" source="1Ko-Gbq0illkobinJ41p-63" target="1Ko-Gbq0illkobinJ41p-11">
          <mxGeometry relative="1" as="geometry" />
        </mxCell>
        <mxCell id="1Ko-Gbq0illkobinJ41p-41" value="Async&lt;br&gt;Send Order confirmation" style="text;html=1;align=center;verticalAlign=middle;resizable=0;points=[];autosize=1;strokeColor=none;fillColor=none;" vertex="1" parent="1">
          <mxGeometry x="785.94" y="443.5" width="149" height="41" as="geometry" />
        </mxCell>
        <mxCell id="1Ko-Gbq0illkobinJ41p-42" value="Async&lt;br&gt;Send Payment confirmation" style="text;html=1;align=center;verticalAlign=middle;resizable=0;points=[];autosize=1;strokeColor=none;fillColor=none;" vertex="1" parent="1">
          <mxGeometry x="876" y="300" width="165" height="41" as="geometry" />
        </mxCell>
        <mxCell id="1Ko-Gbq0illkobinJ41p-43" value="Public network" style="text;html=1;align=center;verticalAlign=middle;resizable=0;points=[];autosize=1;strokeColor=none;fillColor=none;fontStyle=1" vertex="1" parent="1">
          <mxGeometry x="60" y="120" width="103" height="26" as="geometry" />
        </mxCell>
        <mxCell id="1Ko-Gbq0illkobinJ41p-44" value="Private network" style="text;html=1;align=center;verticalAlign=middle;resizable=0;points=[];autosize=1;strokeColor=none;fillColor=none;fontStyle=1" vertex="1" parent="1">
          <mxGeometry x="175" y="57" width="107" height="26" as="geometry" />
        </mxCell>
        <mxCell id="1Ko-Gbq0illkobinJ41p-45" style="edgeStyle=orthogonalEdgeStyle;rounded=0;orthogonalLoop=1;jettySize=auto;html=1;entryX=0.75;entryY=1;entryDx=0;entryDy=0;flowAnimation=1;startArrow=none;startFill=0;endArrow=block;endFill=1;" edge="1" parent="1" source="1Ko-Gbq0illkobinJ41p-67" target="1Ko-Gbq0illkobinJ41p-3">
          <mxGeometry relative="1" as="geometry" />
        </mxCell>
        <mxCell id="1Ko-Gbq0illkobinJ41p-46" style="edgeStyle=orthogonalEdgeStyle;rounded=0;orthogonalLoop=1;jettySize=auto;html=1;entryX=0.25;entryY=1;entryDx=0;entryDy=0;flowAnimation=1;startArrow=block;startFill=1;endArrow=none;endFill=0;" edge="1" parent="1" source="1Ko-Gbq0illkobinJ41p-65" target="1Ko-Gbq0illkobinJ41p-3">
          <mxGeometry relative="1" as="geometry" />
        </mxCell>
        <mxCell id="1Ko-Gbq0illkobinJ41p-47" value="" style="shape=message;html=1;html=1;outlineConnect=0;labelPosition=center;verticalLabelPosition=bottom;align=center;verticalAlign=top;container=0;" vertex="1" parent="1">
          <mxGeometry x="1063" y="344" width="23" height="13.5" as="geometry" />
        </mxCell>
        <mxCell id="1Ko-Gbq0illkobinJ41p-48" value="" style="shape=message;html=1;html=1;outlineConnect=0;labelPosition=center;verticalLabelPosition=bottom;align=center;verticalAlign=top;container=0;" vertex="1" parent="1">
          <mxGeometry x="1089" y="344" width="23" height="13.5" as="geometry" />
        </mxCell>
        <mxCell id="1Ko-Gbq0illkobinJ41p-49" value="" style="shape=message;html=1;html=1;outlineConnect=0;labelPosition=center;verticalLabelPosition=bottom;align=center;verticalAlign=top;container=0;" vertex="1" parent="1">
          <mxGeometry x="1116" y="344" width="23" height="13.5" as="geometry" />
        </mxCell>
        <mxCell id="1Ko-Gbq0illkobinJ41p-50" style="edgeStyle=orthogonalEdgeStyle;rounded=0;orthogonalLoop=1;jettySize=auto;html=1;flowAnimation=1;" edge="1" parent="1" source="1Ko-Gbq0illkobinJ41p-67" target="1Ko-Gbq0illkobinJ41p-65">
          <mxGeometry relative="1" as="geometry" />
        </mxCell>
        <mxCell id="1Ko-Gbq0illkobinJ41p-51" style="edgeStyle=orthogonalEdgeStyle;rounded=0;orthogonalLoop=1;jettySize=auto;html=1;flowAnimation=1;exitX=1;exitY=0.5;exitDx=0;exitDy=0;strokeColor=default;comic=0;enumerate=0;backgroundOutline=0;movable=1;arcSize=20;shadow=1;" edge="1" parent="1" source="7ISPcb02RUtmdeXWyQOw-6" target="1Ko-Gbq0illkobinJ41p-39">
          <mxGeometry relative="1" as="geometry">
            <mxPoint x="16.180000000000064" y="360" as="sourcePoint" />
          </mxGeometry>
        </mxCell>
        <mxCell id="1Ko-Gbq0illkobinJ41p-53" value="" style="shape=image;verticalLabelPosition=bottom;labelBackgroundColor=default;verticalAlign=top;aspect=fixed;imageAspect=0;image=https://www.opc-router.de/wp-content/uploads/2021/03/mongodb_thumbnail.png;" vertex="1" parent="1">
          <mxGeometry x="730.1799999999998" y="128" width="55.76" height="75" as="geometry" />
        </mxCell>
        <mxCell id="1Ko-Gbq0illkobinJ41p-54" value="E-Commerce [Micro Services | Spring boot 3 | Spring Cloud]" style="text;html=1;strokeColor=none;fillColor=none;align=center;verticalAlign=middle;whiteSpace=wrap;rounded=0;fontSize=50;fontStyle=1" vertex="1" parent="1">
          <mxGeometry x="166.5" y="-41" width="1435" height="98" as="geometry" />
        </mxCell>
        <mxCell id="1Ko-Gbq0illkobinJ41p-55" value="Customer" style="rounded=1;whiteSpace=wrap;html=1;" vertex="1" parent="1">
          <mxGeometry x="539" y="140" width="120" height="39" as="geometry" />
        </mxCell>
        <mxCell id="1Ko-Gbq0illkobinJ41p-56" value="" style="shape=image;verticalLabelPosition=bottom;labelBackgroundColor=default;verticalAlign=top;aspect=fixed;imageAspect=0;image=https://images.ctfassets.net/gt6dp23g0g38/5DqlQtFKecFlkqQ8YGDT2p/aa945b648f44dd872e9a1b89f7d203ef/springboot.png;" vertex="1" parent="1">
          <mxGeometry x="543" y="142.6" width="19.538999999999998" height="17.55" as="geometry" />
        </mxCell>
        <mxCell id="1Ko-Gbq0illkobinJ41p-57" value="Product" style="rounded=1;whiteSpace=wrap;html=1;" vertex="1" parent="1">
          <mxGeometry x="483" y="330.5" width="120" height="41" as="geometry" />
        </mxCell>
        <mxCell id="1Ko-Gbq0illkobinJ41p-58" value="" style="shape=image;verticalLabelPosition=bottom;labelBackgroundColor=default;verticalAlign=top;aspect=fixed;imageAspect=0;image=https://images.ctfassets.net/gt6dp23g0g38/5DqlQtFKecFlkqQ8YGDT2p/aa945b648f44dd872e9a1b89f7d203ef/springboot.png;" vertex="1" parent="1">
          <mxGeometry x="487" y="333.23333333333335" width="20.541" height="18.45" as="geometry" />
        </mxCell>
        <mxCell id="1Ko-Gbq0illkobinJ41p-59" value="Payment" style="rounded=1;whiteSpace=wrap;html=1;" vertex="1" parent="1">
          <mxGeometry x="758" y="324" width="120" height="40" as="geometry" />
        </mxCell>
        <mxCell id="1Ko-Gbq0illkobinJ41p-60" value="" style="shape=image;verticalLabelPosition=bottom;labelBackgroundColor=default;verticalAlign=top;aspect=fixed;imageAspect=0;image=https://images.ctfassets.net/gt6dp23g0g38/5DqlQtFKecFlkqQ8YGDT2p/aa945b648f44dd872e9a1b89f7d203ef/springboot.png;" vertex="1" parent="1">
          <mxGeometry x="762" y="326.6666666666667" width="20.04" height="18.000000000000004" as="geometry" />
        </mxCell>
        <mxCell id="1Ko-Gbq0illkobinJ41p-61" value="Order" style="rounded=1;whiteSpace=wrap;html=1;" vertex="1" parent="1">
          <mxGeometry x="537" y="508" width="120" height="41.5" as="geometry" />
        </mxCell>
        <mxCell id="1Ko-Gbq0illkobinJ41p-62" value="" style="shape=image;verticalLabelPosition=bottom;labelBackgroundColor=default;verticalAlign=top;aspect=fixed;imageAspect=0;image=https://images.ctfassets.net/gt6dp23g0g38/5DqlQtFKecFlkqQ8YGDT2p/aa945b648f44dd872e9a1b89f7d203ef/springboot.png;" vertex="1" parent="1">
          <mxGeometry x="541" y="510.76666666666665" width="20.7915" height="18.675" as="geometry" />
        </mxCell>
        <mxCell id="1Ko-Gbq0illkobinJ41p-63" value="Notification" style="rounded=1;whiteSpace=wrap;html=1;" vertex="1" parent="1">
          <mxGeometry x="1254" y="320.5" width="120" height="47" as="geometry" />
        </mxCell>
        <mxCell id="1Ko-Gbq0illkobinJ41p-64" value="" style="shape=image;verticalLabelPosition=bottom;labelBackgroundColor=default;verticalAlign=top;aspect=fixed;imageAspect=0;image=https://images.ctfassets.net/gt6dp23g0g38/5DqlQtFKecFlkqQ8YGDT2p/aa945b648f44dd872e9a1b89f7d203ef/springboot.png;" vertex="1" parent="1">
          <mxGeometry x="1258" y="323.6333333333333" width="23.546999999999997" height="21.15" as="geometry" />
        </mxCell>
        <mxCell id="1Ko-Gbq0illkobinJ41p-65" value="Eureka server" style="rounded=1;whiteSpace=wrap;html=1;" vertex="1" parent="1">
          <mxGeometry x="487" y="703.13" width="120" height="47" as="geometry" />
        </mxCell>
        <mxCell id="1Ko-Gbq0illkobinJ41p-66" value="" style="shape=image;verticalLabelPosition=bottom;labelBackgroundColor=default;verticalAlign=top;aspect=fixed;imageAspect=0;image=https://images.ctfassets.net/gt6dp23g0g38/5DqlQtFKecFlkqQ8YGDT2p/aa945b648f44dd872e9a1b89f7d203ef/springboot.png;" vertex="1" parent="1">
          <mxGeometry x="491" y="706.2633333333333" width="23.546999999999997" height="21.15" as="geometry" />
        </mxCell>
        <mxCell id="1Ko-Gbq0illkobinJ41p-67" value="Config server" style="rounded=1;whiteSpace=wrap;html=1;" vertex="1" parent="1">
          <mxGeometry x="1054" y="703.13" width="120" height="47" as="geometry" />
        </mxCell>
        <mxCell id="1Ko-Gbq0illkobinJ41p-68" value="" style="shape=image;verticalLabelPosition=bottom;labelBackgroundColor=default;verticalAlign=top;aspect=fixed;imageAspect=0;image=https://images.ctfassets.net/gt6dp23g0g38/5DqlQtFKecFlkqQ8YGDT2p/aa945b648f44dd872e9a1b89f7d203ef/springboot.png;" vertex="1" parent="1">
          <mxGeometry x="1058" y="706.2633333333333" width="23.546999999999997" height="21.15" as="geometry" />
        </mxCell>
        <mxCell id="7ISPcb02RUtmdeXWyQOw-3" value="" style="shape=image;verticalLabelPosition=bottom;labelBackgroundColor=default;verticalAlign=top;aspect=fixed;imageAspect=0;image=data:image/svg+xml,PHN2ZyB4bWxucz0iaHR0cDovL3d3dy53My5vcmcvMjAwMC9zdmciIGZpbGw9Im5vbmUiIHZpZXdCb3g9IjAgMCAzMiAzMiIgaGVpZ2h0PSI4MDBweCIgd2lkdGg9IjgwMHB4Ij4mI3hhOzxwYXRoIGZpbGw9IiM1M0MxREUiIGQ9Ik0xOC42Nzg5IDE1Ljk3NTlDMTguNjc4OSAxNC41NDE1IDE3LjQ3OTYgMTMuMzc4NSAxNiAxMy4zNzg1QzE0LjUyMDYgMTMuMzc4NSAxMy4zMjExIDE0LjU0MTUgMTMuMzIxMSAxNS45NzU5QzEzLjMyMTEgMTcuNDEwNSAxNC41MjA2IDE4LjU3MzQgMTYgMTguNTczNEMxNy40Nzk2IDE4LjU3MzQgMTguNjc4OSAxNy40MTA1IDE4LjY3ODkgMTUuOTc1OVoiLz4mI3hhOzxwYXRoIGZpbGw9IiM1M0MxREUiIGQ9Ik0yNC43MDA0IDExLjE1MzdDMjUuMjY2MSA4LjkyNDc4IDI1Ljk3NzIgNC43OTE0OCAyMy40NzA0IDMuMzkwMTZDMjAuOTc1MyAxLjk5NDk1IDE3LjcyODQgNC42Njg0MyAxNi4wMTM5IDYuMjczMThDMTQuMzA0NCA0LjY4NDQyIDEwLjk2NjMgMi4wMjIzNyA4LjQ2MTYzIDMuNDI4MTRDNS45Njc1MSA0LjgyODAzIDYuNzM2NjQgOC44OTI4IDcuMzE0OSAxMS4xMzU3QzQuOTg4MzEgMTEuNzc2NCAxIDEzLjE1NjQgMSAxNS45NzU5QzEgMTguNzg3NCA0Ljk4NDE2IDIwLjI4ODggNy4yOTY5OCAyMC45Mjg5QzYuNzE2NTggMjMuMTg0MiA1Ljk4NTk2IDI3LjE5MDkgOC40ODMyNyAyOC41ODc3QzEwLjk5NzMgMjkuOTkzMiAxNC4zMjUgMjcuMzk0NSAxNi4wNTU0IDI1Ljc3MjJDMTcuNzgwOSAyNy4zODY0IDIwLjk5NjYgMzAuMDAyMSAyMy40OTIyIDI4LjYwMTRDMjUuOTk1NiAyNy4xOTYzIDI1LjM0MzYgMjMuMTE4NCAyNC43NjUzIDIwLjg2MjVDMjcuMDA3MyAyMC4yMjEgMzEgMTguNzUyMyAzMSAxNS45NzU5QzMxIDEzLjE4MzUgMjYuOTkwMyAxMS43OTIzIDI0LjcwMDQgMTEuMTUzN1pNMjQuNDE2MiAxOS42NjdDMjQuMDM2NSAxOC41MDE2IDIzLjUyNCAxNy4yNjIzIDIyLjg5NzEgMTUuOTgyMUMyMy40OTU1IDE0LjczMjEgMjMuOTg4MSAxMy41MDg4IDI0LjM1NzIgMTIuMzUwOUMyNi4wMzU5IDEyLjgyMjggMjkuNzE4NSAxMy45MDEzIDI5LjcxODUgMTUuOTc1OUMyOS43MTg1IDE4LjA3IDI2LjE4NDYgMTkuMTU4NyAyNC40MTYyIDE5LjY2N1pNMjIuODUgMjcuNTI2QzIwLjk4OCAyOC41NzEgMTguMjIyMSAyNi4wNjk2IDE2Ljk0NzggMjQuODgwOUMxNy43OTMyIDIzLjk4NDQgMTguNjM4IDIyLjk0MjIgMTkuNDYyNSAyMS43ODQ5QzIwLjkxMjkgMjEuNjYwMiAyMi4yODMgMjEuNDU2MiAyMy41MjU2IDIxLjE3NzdDMjMuOTMyNiAyMi43NzM0IDI0LjcyMDIgMjYuNDc2MyAyMi44NSAyNy41MjZaTTkuMTIzNjIgMjcuNTExMUM3LjI2MTQzIDI2LjQ3IDguMTEyNTggMjIuODk0NiA4LjUzOTU3IDIxLjIzMzNDOS43NjgzNCAyMS40OTY5IDExLjEyODYgMjEuNjg2NSAxMi41ODI0IDIxLjgwMDhDMTMuNDEyMyAyMi45MzMyIDE0LjI4MTYgMjMuOTc0MSAxNS4xNTc2IDI0Ljg4NTdDMTQuMDc1MyAyNS45MDA4IDEwLjk5NDUgMjguNTU3IDkuMTIzNjIgMjcuNTExMVpNMi4yODE0OSAxNS45NzU5QzIuMjgxNDkgMTMuODc0IDUuOTQyMDcgMTIuODAzMyA3LjY1OTA0IDEyLjMzMjZDOC4wMzQ1MSAxMy41MTY1IDguNTI2OTUgMTQuNzU0NCA5LjEyMTIzIDE2LjAwNjJDOC41MTkyNSAxNy4yNzY2IDguMDE5NzcgMTguNTM0MSA3LjY0MDg1IDE5LjczMkM2LjAwMzY5IDE5LjI3NzYgMi4yODE0OSAxOC4wNzkxIDIuMjgxNDkgMTUuOTc1OVpNOS4xMDM3IDQuNTAzNTRDMTAuOTczNSAzLjQ1NDE2IDEzLjg3NDcgNi4wMDk4MyAxNS4xMTU5IDcuMTYwMTNDMTQuMjQ0NCA4LjA2NzU0IDEzLjM4MzEgOS4xMDA2IDEyLjU2MDMgMTAuMjI2NUMxMS4xNDk0IDEwLjM1MzMgOS43OTg3NSAxMC41NTY5IDguNTU3MDkgMTAuODI5N0M4LjA5MTI1IDkuMDIwNzEgNy4yMzU5MiA1LjU1MTc5IDkuMTAzNyA0LjUwMzU0Wk0yMC4zNzkzIDExLjU3NzFDMjEuMzM2NSAxMS42OTQyIDIyLjI1MzYgMTEuODUgMjMuMTE0NyAxMi4wNDA2QzIyLjg1NjIgMTIuODQ0IDIyLjUzNCAxMy42ODQxIDIyLjE1NDUgMTQuNTQ1M0MyMS42MDQ0IDEzLjUzMzMgMjEuMDEzOSAxMi41NDE2IDIwLjM3OTMgMTEuNTc3MVpNMTYuMDE0MyA4LjA0ODFDMTYuNjA1NCA4LjY2ODk3IDE3LjE5NzQgOS4zNjIzIDE3Ljc3OTggMTAuMTE0NUMxNi41OTg1IDEwLjA2MDMgMTUuNDE1MyAxMC4wNjAxIDE0LjIzNCAxMC4xMTM3QzE0LjgxNjkgOS4zNjg0OCAxNS40MTQgOC42NzYxOCAxNi4wMTQzIDguMDQ4MVpNOS44NTY1IDE0LjU0NDRDOS40ODMyOSAxMy42ODYyIDkuMTYzOTggMTIuODQyNCA4LjkwMzIyIDEyLjAyNzVDOS43NTkxOCAxMS44NDE4IDEwLjY3MiAxMS42OSAxMS42MjMgMTEuNTc0OEMxMC45ODY2IDEyLjUzNzIgMTAuMzk3MSAxMy41Mjg1IDkuODU2NSAxNC41NDQ0Wk0xMS42NTAzIDIwLjQ2NTdDMTAuNjY3OSAyMC4zNTk0IDkuNzQxMjYgMjAuMjE1MyA4Ljg4NTU2IDIwLjAzNDdDOS4xNTA0NCAxOS4yMDU1IDkuNDc2NzggMTguMzQzNSA5Ljg1Nzk2IDE3LjQ2NjhDMTAuNDA2IDE4LjQ5MzMgMTEuMDA0NSAxOS40OTQyIDExLjY1MDMgMjAuNDY1N1pNMTYuMDQ5OCAyMy45OTE1QzE1LjQ0MjQgMjMuMzU2IDE0LjgzNjUgMjIuNjUzMSAxNC4yNDQ4IDIxLjg5NzFDMTUuNDMyOCAyMS45NDIzIDE2LjYyMzEgMjEuOTQyNCAxNy44MTEgMjEuODkxQzE3LjIyNjggMjIuNjYwOCAxNi42MzY5IDIzLjM2NDcgMTYuMDQ5OCAyMy45OTE1Wk0yMi4xNjY3IDE3LjQyMjJDMjIuNTY3NyAxOC4zMDg0IDIyLjkwNTcgMTkuMTY1NyAyMy4xNzQyIDE5Ljk4MDlDMjIuMzA0MyAyMC4xNzM0IDIxLjM2NTIgMjAuMzI4NCAyMC4zNzU3IDIwLjQ0MzVDMjEuMDE1IDE5LjQ2MDcgMjEuNjE0OSAxOC40NTM2IDIyLjE2NjcgMTcuNDIyMlpNMTguNzQ3MyAyMC41OTQxQzE2LjkzMDEgMjAuNzIgMTUuMTAxNiAyMC43MTg2IDEzLjI4MzggMjAuNjA0NEMxMi4yNTA5IDE5LjE0MTUgMTEuMzMxNCAxNy42MDMgMTAuNTM3NyAxNi4wMDU4QzExLjMyNzYgMTQuNDExOSAxMi4yNDA0IDEyLjg3NjQgMTMuMjY4NCAxMS40MTU4QzE1LjA4NzUgMTEuMjgyNSAxNi45MTc4IDExLjI4MjEgMTguNzM2OSAxMS40MTY2QzE5Ljc1NjEgMTIuODc3MSAyMC42Njc1IDE0LjQwODYgMjEuNDc1NyAxNS45ODgxQzIwLjY3NzEgMTcuNTgxMiAxOS43NTk1IDE5LjExOTggMTguNzQ3MyAyMC41OTQxWk0yMi44MzAzIDQuNDY2NkMyNC43MDA2IDUuNTEyNTQgMjMuODY4MSA5LjIyNzI2IDIzLjQ1OTUgMTAuODQyNkMyMi4yMTQ5IDEwLjU2NDEgMjAuODYzMyAxMC4zNTY5IDE5LjQ0ODMgMTAuMjI4MUMxOC42MjM5IDkuMDkwMDQgMTcuNzY5OCA4LjA1NTE4IDE2LjkxMjQgNy4xNTk0OUMxOC4xNjk1IDUuOTg0NDEgMjAuOTc4MSAzLjQzMDg5IDIyLjgzMDMgNC40NjY2WiIgY2xpcC1ydWxlPSJldmVub2RkIiBmaWxsLXJ1bGU9ImV2ZW5vZGQiLz4mI3hhOzwvc3ZnPg==;" vertex="1" parent="1">
          <mxGeometry x="-94.28" y="274.5" width="77.55" height="77.55" as="geometry" />
        </mxCell>
        <mxCell id="7ISPcb02RUtmdeXWyQOw-5" value="" style="shape=image;verticalLabelPosition=bottom;labelBackgroundColor=default;verticalAlign=top;aspect=fixed;imageAspect=0;image=data:image/svg+xml,PHN2ZyB4bWxuczp4bGluaz0iaHR0cDovL3d3dy53My5vcmcvMTk5OS94bGluayIgeG1sbnM9Imh0dHA6Ly93d3cudzMub3JnLzIwMDAvc3ZnIiBwcmVzZXJ2ZUFzcGVjdFJhdGlvPSJ4TWlkWU1pZCIgdmVyc2lvbj0iMS4xIiB2aWV3Qm94PSIwIDAgMjU2IDI1NiIgaGVpZ2h0PSI4MDBweCIgd2lkdGg9IjgwMHB4Ij4mI3hhOyAgICA8Zz4mI3hhOyAgICAgICAgPHBhdGggZmlsbD0iIzNlZGRmNCIgZD0iTTExOS42MTY4MTMsMC4wNjg4OTA1MTQ5IEMxMTkuMDY2Mjc2LDAuMTE4OTMyMDM3IDExNy4zMTQ1NjUsMC4yOTQwNzczNjQgMTE1LjczODAyNSwwLjQxOTE4MTE2OSBDNzkuMzc3NTE3MSwzLjY5NjkwMDg3IDQ1LjMxOTI1NzEsMjMuMzEzMTc3NSAyMy43NDgxOTE2LDUzLjQ2MzE5NDYgQzExLjczNjQ2MTQsNzAuMjI3MTA0NSA0LjA1Mzk1ODk0LDg5LjI0Mjg4MjkgMS4xNTExMjQxNCwxMDkuMzg0NTk1IEMwLjEyNTEyMjE5LDExNi40MTU0MjkgMCwxMTguNDkyMTUzIDAsMTI4LjAyNTA2MiBDMCwxMzcuNTU3OTcyIDAuMTI1MTIyMTksMTM5LjYzNDY5NiAxLjE1MTEyNDE0LDE0Ni42NjU1MjkgQzguMTA3OTE3ODksMTk0LjczMDQxMSA0Mi4zMTYzMjQ1LDIzNS4xMTM5MiA4OC43MTE2MzI1LDI1MC4wNzYzMzUgQzk3LjAxOTc0NTgsMjUyLjc1MzU1NiAxMDUuNzc4Mjk5LDI1NC41ODAwNzIgMTE1LjczODAyNSwyNTUuNjgwOTg1IEMxMTkuNjE2ODEzLDI1Ni4xMDYzMzggMTM2LjM4MzE4NywyNTYuMTA2MzM4IDE0MC4yNjE5NzUsMjU1LjY4MDk4NSBDMTU3LjQ1Mzc2MywyNTMuNzc5NDA3IDE3Mi4wMTc5ODYsMjQ5LjUyNTg3OCAxODYuMzgyMDE0LDI0Mi4xOTQ3OTUgQzE4OC41ODQxNjQsMjQxLjA2ODg2MSAxODkuMDA5NTgsMjQwLjc2ODYxMiAxODguNzA5Mjg2LDI0MC41MTg0MDQgQzE4OC41MDkwOTEsMjQwLjM2ODI4IDE3OS4xMjQ5MjcsMjI3Ljc4MjgzNyAxNjcuODYzOTMsMjEyLjU3MDIxNCBMMTQ3LjM5MzkzOSwxODQuOTIyMjczIEwxMjEuNzQzODkxLDE0Ni45NjU3NzkgQzEwNy42MzAxMDgsMTI2LjA5ODQ2NCA5Ni4wMTg3NjgzLDEwOS4wMzQzMDUgOTUuOTE4NjcwNiwxMDkuMDM0MzA1IEM5NS44MTg1NzI4LDEwOS4wMDkyODQgOTUuNzE4NDc1MSwxMjUuODczMjc3IDk1LjY2ODQyNjIsMTQ2LjQ2NTM2MyBDOTUuNTkzMzUyOSwxODIuNTIwMjggOTUuNTY4MzI4NCwxODMuOTcxNDg0IDk1LjExNzg4ODYsMTg0LjgyMjE5IEM5NC40NjcyNTMyLDE4Ni4wNDgyMDcgOTMuOTY2NzY0NCwxODYuNTQ4NjIzIDkyLjkxNTczOCwxODcuMDk5MDc5IEM5Mi4xMTQ5NTYsMTg3LjQ5OTQxMSA5MS40MTQyNzE3LDE4Ny41NzQ0NzQgODcuNjM1NTgxNiwxODcuNTc0NDc0IEw4My4zMDYzNTM5LDE4Ny41NzQ0NzQgTDgyLjE1NTIyOTcsMTg2Ljg0ODg3MiBDODEuNDA0NDk2NiwxODYuMzczNDc3IDgwLjg1Mzk1ODksMTg1Ljc0Nzk1OCA4MC40Nzg1OTI0LDE4NS4wMjIzNTYgTDc5Ljk1MzA3OTIsMTgzLjg5NjQyMiBMODAuMDAzMTI4MSwxMzMuNzI5Nzk2IEw4MC4wNzgyMDE0LDgzLjUzODE0OTMgTDgwLjg1Mzk1ODksODIuNTYyMzM5NyBDODEuMjU0MzUsODIuMDM2OTAzNyA4Mi4xMDUxODA4LDgxLjM2MTM0MzEgODIuNzA1NzY3NCw4MS4wMzYwNzMyIEM4My43MzE3NjkzLDgwLjUzNTY1OCA4NC4xMzIxNjAzLDgwLjQ4NTYxNjUgODguNDYxMzg4MSw4MC40ODU2MTY1IEM5My41NjYzNzM0LDgwLjQ4NTYxNjUgOTQuNDE3MjA0Myw4MC42ODU3ODI2IDk1Ljc0MzQ5OTUsODIuMTM2OTg2NyBDOTYuMTE4ODY2MSw4Mi41MzczMTg5IDExMC4wMDc0MjksMTAzLjQ1NDY3NSAxMjYuNjIzNjU2LDEyOC42NTA1ODEgQzE0My4yMzk4ODMsMTUzLjg0NjQ4OCAxNjUuOTYyMDcyLDE4OC4yNTAwMzQgMTc3LjEyMjk3MiwyMDUuMTM5MDQ4IEwxOTcuMzkyNzY2LDIzNS44Mzk1MjIgTDE5OC40MTg3NjgsMjM1LjE2Mzk2MSBDMjA3LjUwMjYzOSwyMjkuMjU5MDYyIDIxNy4xMTIwMjMsMjIwLjg1MjA4NiAyMjQuNzE5NDUzLDIxMi4wOTQ4MiBDMjQwLjkxMDI2NCwxOTMuNTA0Mzk0IDI1MS4zNDU0NTUsMTcwLjgzNTU4NSAyNTQuODQ4ODc2LDE0Ni42NjU1MjkgQzI1NS44NzQ4NzgsMTM5LjYzNDY5NiAyNTYsMTM3LjU1Nzk3MiAyNTYsMTI4LjAyNTA2MiBDMjU2LDExOC40OTIxNTMgMjU1Ljg3NDg3OCwxMTYuNDE1NDI5IDI1NC44NDg4NzYsMTA5LjM4NDU5NSBDMjQ3Ljg5MjA4Miw2MS4zMTk3MTM1IDIxMy42ODM2NzUsMjAuOTM2MjA1MiAxNjcuMjg4MzY4LDUuOTczNzkwMTIgQzE1OS4xMDUzNzYsMy4zMjE1ODk0NSAxNTAuMzk2ODcyLDEuNDk1MDczODkgMTQwLjYzNzM0MSwwLjM5NDE2MDQwOCBDMTM4LjIzNDk5NSwwLjE0Mzk1Mjc5OCAxMjEuNjkzODQyLC0wLjEzMTI3NTU3MyAxMTkuNjE2ODEzLDAuMDY4ODkwNTE0OSBMMTE5LjYxNjgxMywwLjA2ODg5MDUxNDkgWiBNMTcyLjAxNzk4Niw3Ny40ODMxMjUyIEMxNzMuMjE5MTU5LDc4LjA4MzYyMzQgMTc0LjE5NTExMiw3OS4yMzQ1Nzg0IDE3NC41NDU0NTUsODAuNDM1NTc1IEMxNzQuNzQ1NjUsODEuMDg2MTE0OCAxNzQuNzk1Njk5LDk0Ljk5NzY1NzkgMTc0Ljc0NTY1LDEyNi4zNDg2NzEgTDE3NC42NzA1NzcsMTcxLjMzNiBMMTY2LjczNzgzLDE1OS4xNzU5MSBMMTU4Ljc4MDA1OSwxNDcuMDE1ODIgTDE1OC43ODAwNTksMTE0LjMxMzY4NSBDMTU4Ljc4MDA1OSw5My4xNzExNDIzIDE1OC44ODAxNTYsODEuMjg2MjgwOCAxNTkuMDMwMzAzLDgwLjcxMDgwMzMgQzE1OS40MzA2OTQsNzkuMzA5NjQwNyAxNjAuMzA2NTQ5LDc4LjIwODcyNzIgMTYxLjUwNzcyMiw3Ny41NTgxODc1IEMxNjIuNTMzNzI0LDc3LjAzMjc1MTUgMTYyLjkwOTA5MSw3Ni45ODI3MSAxNjYuODM3OTI4LDc2Ljk4MjcxIEMxNzAuNTQxNTQ0LDc2Ljk4MjcxIDE3MS4xOTIxOCw3Ny4wMzI3NTE1IDE3Mi4wMTc5ODYsNzcuNDgzMTI1MiBaIj4mI3hhOyYjeGE7PC9wYXRoPiYjeGE7ICAgIDwvZz4mI3hhOzwvc3ZnPg==;" vertex="1" parent="1">
          <mxGeometry x="-94.28" y="351.68" width="73.14" height="73.14" as="geometry" />
        </mxCell>
      </root>
    </mxGraphModel>
  </diagram>
  <diagram name="class-diagram" id="S_r6czpUGBnyUab81_5I">
    <mxGraphModel dx="1497" dy="943" grid="0" gridSize="10" guides="0" tooltips="1" connect="0" arrows="0" fold="1" page="0" pageScale="1" pageWidth="1169" pageHeight="827" math="0" shadow="0">
      <root>
        <mxCell id="0" />
        <mxCell id="1" parent="0" />
        <mxCell id="nPPL16FtD3WXAmP0PZX--12" style="edgeStyle=orthogonalEdgeStyle;rounded=0;orthogonalLoop=1;jettySize=auto;html=1;entryX=0.5;entryY=0;entryDx=0;entryDy=0;endArrow=ERmany;endFill=0;startArrow=ERmandOne;startFill=0;" parent="1" source="WRttjeE3I7V11c35sN3d-1" target="WRttjeE3I7V11c35sN3d-10" edge="1">
          <mxGeometry relative="1" as="geometry" />
        </mxCell>
        <mxCell id="WRttjeE3I7V11c35sN3d-1" value="Customer" style="swimlane;fontStyle=0;childLayout=stackLayout;horizontal=1;startSize=26;fillColor=#d5e8d4;horizontalStack=0;resizeParent=1;resizeParentMax=0;resizeLast=0;collapsible=1;marginBottom=0;whiteSpace=wrap;html=1;strokeColor=#82b366;" parent="1" vertex="1">
          <mxGeometry x="70" y="-80" width="140" height="130" as="geometry" />
        </mxCell>
        <mxCell id="WRttjeE3I7V11c35sN3d-2" value="id" style="text;strokeColor=none;fillColor=none;align=left;verticalAlign=top;spacingLeft=4;spacingRight=4;overflow=hidden;rotatable=0;points=[[0,0.5],[1,0.5]];portConstraint=eastwest;whiteSpace=wrap;html=1;" parent="WRttjeE3I7V11c35sN3d-1" vertex="1">
          <mxGeometry y="26" width="140" height="26" as="geometry" />
        </mxCell>
        <mxCell id="WRttjeE3I7V11c35sN3d-3" value="firstname" style="text;strokeColor=none;fillColor=none;align=left;verticalAlign=top;spacingLeft=4;spacingRight=4;overflow=hidden;rotatable=0;points=[[0,0.5],[1,0.5]];portConstraint=eastwest;whiteSpace=wrap;html=1;" parent="WRttjeE3I7V11c35sN3d-1" vertex="1">
          <mxGeometry y="52" width="140" height="26" as="geometry" />
        </mxCell>
        <mxCell id="WRttjeE3I7V11c35sN3d-4" value="lastname" style="text;strokeColor=none;fillColor=none;align=left;verticalAlign=top;spacingLeft=4;spacingRight=4;overflow=hidden;rotatable=0;points=[[0,0.5],[1,0.5]];portConstraint=eastwest;whiteSpace=wrap;html=1;" parent="WRttjeE3I7V11c35sN3d-1" vertex="1">
          <mxGeometry y="78" width="140" height="26" as="geometry" />
        </mxCell>
        <mxCell id="WRttjeE3I7V11c35sN3d-5" value="email" style="text;strokeColor=none;fillColor=none;align=left;verticalAlign=top;spacingLeft=4;spacingRight=4;overflow=hidden;rotatable=0;points=[[0,0.5],[1,0.5]];portConstraint=eastwest;whiteSpace=wrap;html=1;" parent="WRttjeE3I7V11c35sN3d-1" vertex="1">
          <mxGeometry y="104" width="140" height="26" as="geometry" />
        </mxCell>
        <mxCell id="nPPL16FtD3WXAmP0PZX--13" style="edgeStyle=orthogonalEdgeStyle;rounded=0;orthogonalLoop=1;jettySize=auto;html=1;entryX=0;entryY=0.5;entryDx=0;entryDy=0;endArrow=ERmany;endFill=0;startArrow=ERmandOne;startFill=0;" parent="1" source="WRttjeE3I7V11c35sN3d-10" target="nPPL16FtD3WXAmP0PZX--2" edge="1">
          <mxGeometry relative="1" as="geometry" />
        </mxCell>
        <mxCell id="WRttjeE3I7V11c35sN3d-10" value="Order" style="swimlane;fontStyle=0;childLayout=stackLayout;horizontal=1;startSize=26;fillColor=#dae8fc;horizontalStack=0;resizeParent=1;resizeParentMax=0;resizeLast=0;collapsible=1;marginBottom=0;whiteSpace=wrap;html=1;strokeColor=#6c8ebf;" parent="1" vertex="1">
          <mxGeometry x="70" y="200" width="140" height="104" as="geometry" />
        </mxCell>
        <mxCell id="WRttjeE3I7V11c35sN3d-11" value="id" style="text;strokeColor=none;fillColor=none;align=left;verticalAlign=top;spacingLeft=4;spacingRight=4;overflow=hidden;rotatable=0;points=[[0,0.5],[1,0.5]];portConstraint=eastwest;whiteSpace=wrap;html=1;" parent="WRttjeE3I7V11c35sN3d-10" vertex="1">
          <mxGeometry y="26" width="140" height="26" as="geometry" />
        </mxCell>
        <mxCell id="WRttjeE3I7V11c35sN3d-12" value="orderDate" style="text;strokeColor=none;fillColor=none;align=left;verticalAlign=top;spacingLeft=4;spacingRight=4;overflow=hidden;rotatable=0;points=[[0,0.5],[1,0.5]];portConstraint=eastwest;whiteSpace=wrap;html=1;" parent="WRttjeE3I7V11c35sN3d-10" vertex="1">
          <mxGeometry y="52" width="140" height="26" as="geometry" />
        </mxCell>
        <mxCell id="WRttjeE3I7V11c35sN3d-13" value="reference" style="text;strokeColor=none;fillColor=none;align=left;verticalAlign=top;spacingLeft=4;spacingRight=4;overflow=hidden;rotatable=0;points=[[0,0.5],[1,0.5]];portConstraint=eastwest;whiteSpace=wrap;html=1;" parent="WRttjeE3I7V11c35sN3d-10" vertex="1">
          <mxGeometry y="78" width="140" height="26" as="geometry" />
        </mxCell>
        <mxCell id="WRttjeE3I7V11c35sN3d-14" value="Product" style="swimlane;fontStyle=0;childLayout=stackLayout;horizontal=1;startSize=26;fillColor=#fff2cc;horizontalStack=0;resizeParent=1;resizeParentMax=0;resizeLast=0;collapsible=1;marginBottom=0;whiteSpace=wrap;html=1;strokeColor=#d6b656;" parent="1" vertex="1">
          <mxGeometry x="453" y="174" width="140" height="156" as="geometry" />
        </mxCell>
        <mxCell id="WRttjeE3I7V11c35sN3d-15" value="id" style="text;strokeColor=none;fillColor=none;align=left;verticalAlign=top;spacingLeft=4;spacingRight=4;overflow=hidden;rotatable=0;points=[[0,0.5],[1,0.5]];portConstraint=eastwest;whiteSpace=wrap;html=1;" parent="WRttjeE3I7V11c35sN3d-14" vertex="1">
          <mxGeometry y="26" width="140" height="26" as="geometry" />
        </mxCell>
        <mxCell id="WRttjeE3I7V11c35sN3d-16" value="name" style="text;strokeColor=none;fillColor=none;align=left;verticalAlign=top;spacingLeft=4;spacingRight=4;overflow=hidden;rotatable=0;points=[[0,0.5],[1,0.5]];portConstraint=eastwest;whiteSpace=wrap;html=1;" parent="WRttjeE3I7V11c35sN3d-14" vertex="1">
          <mxGeometry y="52" width="140" height="26" as="geometry" />
        </mxCell>
        <mxCell id="WRttjeE3I7V11c35sN3d-17" value="description" style="text;strokeColor=none;fillColor=none;align=left;verticalAlign=top;spacingLeft=4;spacingRight=4;overflow=hidden;rotatable=0;points=[[0,0.5],[1,0.5]];portConstraint=eastwest;whiteSpace=wrap;html=1;" parent="WRttjeE3I7V11c35sN3d-14" vertex="1">
          <mxGeometry y="78" width="140" height="26" as="geometry" />
        </mxCell>
        <mxCell id="WRttjeE3I7V11c35sN3d-18" value="availableQuantity" style="text;strokeColor=none;fillColor=none;align=left;verticalAlign=top;spacingLeft=4;spacingRight=4;overflow=hidden;rotatable=0;points=[[0,0.5],[1,0.5]];portConstraint=eastwest;whiteSpace=wrap;html=1;" parent="WRttjeE3I7V11c35sN3d-14" vertex="1">
          <mxGeometry y="104" width="140" height="26" as="geometry" />
        </mxCell>
        <mxCell id="WRttjeE3I7V11c35sN3d-24" value="price" style="text;strokeColor=none;fillColor=none;align=left;verticalAlign=top;spacingLeft=4;spacingRight=4;overflow=hidden;rotatable=0;points=[[0,0.5],[1,0.5]];portConstraint=eastwest;whiteSpace=wrap;html=1;" parent="WRttjeE3I7V11c35sN3d-14" vertex="1">
          <mxGeometry y="130" width="140" height="26" as="geometry" />
        </mxCell>
        <mxCell id="nPPL16FtD3WXAmP0PZX--27" style="edgeStyle=orthogonalEdgeStyle;rounded=0;orthogonalLoop=1;jettySize=auto;html=1;entryX=0.5;entryY=0;entryDx=0;entryDy=0;startArrow=ERmandOne;startFill=0;endArrow=ERmandOne;endFill=0;" parent="1" source="WRttjeE3I7V11c35sN3d-20" target="nPPL16FtD3WXAmP0PZX--6" edge="1">
          <mxGeometry relative="1" as="geometry" />
        </mxCell>
        <mxCell id="WRttjeE3I7V11c35sN3d-20" value="Payment" style="swimlane;fontStyle=0;childLayout=stackLayout;horizontal=1;startSize=26;fillColor=#ffe6cc;horizontalStack=0;resizeParent=1;resizeParentMax=0;resizeLast=0;collapsible=1;marginBottom=0;whiteSpace=wrap;html=1;strokeColor=#d79b00;" parent="1" vertex="1">
          <mxGeometry x="-180" y="20" width="140" height="130" as="geometry" />
        </mxCell>
        <mxCell id="WRttjeE3I7V11c35sN3d-21" value="id" style="text;strokeColor=none;fillColor=none;align=left;verticalAlign=top;spacingLeft=4;spacingRight=4;overflow=hidden;rotatable=0;points=[[0,0.5],[1,0.5]];portConstraint=eastwest;whiteSpace=wrap;html=1;" parent="WRttjeE3I7V11c35sN3d-20" vertex="1">
          <mxGeometry y="26" width="140" height="26" as="geometry" />
        </mxCell>
        <mxCell id="WRttjeE3I7V11c35sN3d-22" value="reference" style="text;strokeColor=none;fillColor=none;align=left;verticalAlign=top;spacingLeft=4;spacingRight=4;overflow=hidden;rotatable=0;points=[[0,0.5],[1,0.5]];portConstraint=eastwest;whiteSpace=wrap;html=1;" parent="WRttjeE3I7V11c35sN3d-20" vertex="1">
          <mxGeometry y="52" width="140" height="26" as="geometry" />
        </mxCell>
        <mxCell id="WRttjeE3I7V11c35sN3d-23" value="amount" style="text;strokeColor=none;fillColor=none;align=left;verticalAlign=top;spacingLeft=4;spacingRight=4;overflow=hidden;rotatable=0;points=[[0,0.5],[1,0.5]];portConstraint=eastwest;whiteSpace=wrap;html=1;" parent="WRttjeE3I7V11c35sN3d-20" vertex="1">
          <mxGeometry y="78" width="140" height="26" as="geometry" />
        </mxCell>
        <mxCell id="nPPL16FtD3WXAmP0PZX--5" value="status" style="text;strokeColor=none;fillColor=none;align=left;verticalAlign=top;spacingLeft=4;spacingRight=4;overflow=hidden;rotatable=0;points=[[0,0.5],[1,0.5]];portConstraint=eastwest;whiteSpace=wrap;html=1;" parent="WRttjeE3I7V11c35sN3d-20" vertex="1">
          <mxGeometry y="104" width="140" height="26" as="geometry" />
        </mxCell>
        <mxCell id="nPPL16FtD3WXAmP0PZX--1" value="OrderLine" style="swimlane;fontStyle=0;childLayout=stackLayout;horizontal=1;startSize=26;fillColor=#dae8fc;horizontalStack=0;resizeParent=1;resizeParentMax=0;resizeLast=0;collapsible=1;marginBottom=0;whiteSpace=wrap;html=1;strokeColor=#6c8ebf;" parent="1" vertex="1">
          <mxGeometry x="240" y="380" width="140" height="78" as="geometry" />
        </mxCell>
        <mxCell id="nPPL16FtD3WXAmP0PZX--2" value="id" style="text;strokeColor=none;fillColor=none;align=left;verticalAlign=top;spacingLeft=4;spacingRight=4;overflow=hidden;rotatable=0;points=[[0,0.5],[1,0.5]];portConstraint=eastwest;whiteSpace=wrap;html=1;" parent="nPPL16FtD3WXAmP0PZX--1" vertex="1">
          <mxGeometry y="26" width="140" height="26" as="geometry" />
        </mxCell>
        <mxCell id="nPPL16FtD3WXAmP0PZX--3" value="quantity" style="text;strokeColor=none;fillColor=none;align=left;verticalAlign=top;spacingLeft=4;spacingRight=4;overflow=hidden;rotatable=0;points=[[0,0.5],[1,0.5]];portConstraint=eastwest;whiteSpace=wrap;html=1;" parent="nPPL16FtD3WXAmP0PZX--1" vertex="1">
          <mxGeometry y="52" width="140" height="26" as="geometry" />
        </mxCell>
        <mxCell id="nPPL16FtD3WXAmP0PZX--6" value="Notification" style="swimlane;fontStyle=0;childLayout=stackLayout;horizontal=1;startSize=26;fillColor=#e1d5e7;horizontalStack=0;resizeParent=1;resizeParentMax=0;resizeLast=0;collapsible=1;marginBottom=0;whiteSpace=wrap;html=1;strokeColor=#9673a6;" parent="1" vertex="1">
          <mxGeometry x="-180" y="270" width="140" height="156" as="geometry" />
        </mxCell>
        <mxCell id="nPPL16FtD3WXAmP0PZX--7" value="id" style="text;strokeColor=none;fillColor=none;align=left;verticalAlign=top;spacingLeft=4;spacingRight=4;overflow=hidden;rotatable=0;points=[[0,0.5],[1,0.5]];portConstraint=eastwest;whiteSpace=wrap;html=1;" parent="nPPL16FtD3WXAmP0PZX--6" vertex="1">
          <mxGeometry y="26" width="140" height="26" as="geometry" />
        </mxCell>
        <mxCell id="nPPL16FtD3WXAmP0PZX--8" value="sender" style="text;strokeColor=none;fillColor=none;align=left;verticalAlign=top;spacingLeft=4;spacingRight=4;overflow=hidden;rotatable=0;points=[[0,0.5],[1,0.5]];portConstraint=eastwest;whiteSpace=wrap;html=1;" parent="nPPL16FtD3WXAmP0PZX--6" vertex="1">
          <mxGeometry y="52" width="140" height="26" as="geometry" />
        </mxCell>
        <mxCell id="nPPL16FtD3WXAmP0PZX--9" value="recepient" style="text;strokeColor=none;fillColor=none;align=left;verticalAlign=top;spacingLeft=4;spacingRight=4;overflow=hidden;rotatable=0;points=[[0,0.5],[1,0.5]];portConstraint=eastwest;whiteSpace=wrap;html=1;" parent="nPPL16FtD3WXAmP0PZX--6" vertex="1">
          <mxGeometry y="78" width="140" height="26" as="geometry" />
        </mxCell>
        <mxCell id="nPPL16FtD3WXAmP0PZX--10" value="content" style="text;strokeColor=none;fillColor=none;align=left;verticalAlign=top;spacingLeft=4;spacingRight=4;overflow=hidden;rotatable=0;points=[[0,0.5],[1,0.5]];portConstraint=eastwest;whiteSpace=wrap;html=1;" parent="nPPL16FtD3WXAmP0PZX--6" vertex="1">
          <mxGeometry y="104" width="140" height="26" as="geometry" />
        </mxCell>
        <mxCell id="nPPL16FtD3WXAmP0PZX--11" value="date" style="text;strokeColor=none;fillColor=none;align=left;verticalAlign=top;spacingLeft=4;spacingRight=4;overflow=hidden;rotatable=0;points=[[0,0.5],[1,0.5]];portConstraint=eastwest;whiteSpace=wrap;html=1;" parent="nPPL16FtD3WXAmP0PZX--6" vertex="1">
          <mxGeometry y="130" width="140" height="26" as="geometry" />
        </mxCell>
        <mxCell id="nPPL16FtD3WXAmP0PZX--14" style="edgeStyle=orthogonalEdgeStyle;rounded=0;orthogonalLoop=1;jettySize=auto;html=1;entryX=1;entryY=0.5;entryDx=0;entryDy=0;endArrow=ERmany;endFill=0;startArrow=ERmandOne;startFill=0;" parent="1" source="WRttjeE3I7V11c35sN3d-17" target="nPPL16FtD3WXAmP0PZX--2" edge="1">
          <mxGeometry relative="1" as="geometry" />
        </mxCell>
        <mxCell id="nPPL16FtD3WXAmP0PZX--15" style="edgeStyle=orthogonalEdgeStyle;rounded=0;orthogonalLoop=1;jettySize=auto;html=1;startArrow=ERmandOne;startFill=0;endArrow=ERmandOne;endFill=0;" parent="1" source="WRttjeE3I7V11c35sN3d-11" target="WRttjeE3I7V11c35sN3d-21" edge="1">
          <mxGeometry relative="1" as="geometry" />
        </mxCell>
        <mxCell id="nPPL16FtD3WXAmP0PZX--20" style="edgeStyle=orthogonalEdgeStyle;rounded=0;orthogonalLoop=1;jettySize=auto;html=1;entryX=1;entryY=0.5;entryDx=0;entryDy=0;endArrow=ERmany;endFill=0;startArrow=ERmandOne;startFill=0;" parent="1" source="nPPL16FtD3WXAmP0PZX--16" target="WRttjeE3I7V11c35sN3d-15" edge="1">
          <mxGeometry relative="1" as="geometry" />
        </mxCell>
        <mxCell id="nPPL16FtD3WXAmP0PZX--16" value="Category" style="swimlane;fontStyle=0;childLayout=stackLayout;horizontal=1;startSize=26;fillColor=#fff2cc;horizontalStack=0;resizeParent=1;resizeParentMax=0;resizeLast=0;collapsible=1;marginBottom=0;whiteSpace=wrap;html=1;strokeColor=#d6b656;" parent="1" vertex="1">
          <mxGeometry x="608" y="27" width="140" height="104" as="geometry" />
        </mxCell>
        <mxCell id="nPPL16FtD3WXAmP0PZX--17" value="id" style="text;strokeColor=none;fillColor=none;align=left;verticalAlign=top;spacingLeft=4;spacingRight=4;overflow=hidden;rotatable=0;points=[[0,0.5],[1,0.5]];portConstraint=eastwest;whiteSpace=wrap;html=1;" parent="nPPL16FtD3WXAmP0PZX--16" vertex="1">
          <mxGeometry y="26" width="140" height="26" as="geometry" />
        </mxCell>
        <mxCell id="nPPL16FtD3WXAmP0PZX--18" value="name" style="text;strokeColor=none;fillColor=none;align=left;verticalAlign=top;spacingLeft=4;spacingRight=4;overflow=hidden;rotatable=0;points=[[0,0.5],[1,0.5]];portConstraint=eastwest;whiteSpace=wrap;html=1;" parent="nPPL16FtD3WXAmP0PZX--16" vertex="1">
          <mxGeometry y="52" width="140" height="26" as="geometry" />
        </mxCell>
        <mxCell id="nPPL16FtD3WXAmP0PZX--19" value="description" style="text;strokeColor=none;fillColor=none;align=left;verticalAlign=top;spacingLeft=4;spacingRight=4;overflow=hidden;rotatable=0;points=[[0,0.5],[1,0.5]];portConstraint=eastwest;whiteSpace=wrap;html=1;" parent="nPPL16FtD3WXAmP0PZX--16" vertex="1">
          <mxGeometry y="78" width="140" height="26" as="geometry" />
        </mxCell>
        <mxCell id="nPPL16FtD3WXAmP0PZX--21" value="Address" style="swimlane;fontStyle=0;childLayout=stackLayout;horizontal=1;startSize=26;fillColor=#d5e8d4;horizontalStack=0;resizeParent=1;resizeParentMax=0;resizeLast=0;collapsible=1;marginBottom=0;whiteSpace=wrap;html=1;strokeColor=#82b366;" parent="1" vertex="1">
          <mxGeometry x="370" y="-80" width="140" height="130" as="geometry" />
        </mxCell>
        <mxCell id="nPPL16FtD3WXAmP0PZX--22" value="id" style="text;strokeColor=none;fillColor=none;align=left;verticalAlign=top;spacingLeft=4;spacingRight=4;overflow=hidden;rotatable=0;points=[[0,0.5],[1,0.5]];portConstraint=eastwest;whiteSpace=wrap;html=1;" parent="nPPL16FtD3WXAmP0PZX--21" vertex="1">
          <mxGeometry y="26" width="140" height="26" as="geometry" />
        </mxCell>
        <mxCell id="nPPL16FtD3WXAmP0PZX--23" value="street" style="text;strokeColor=none;fillColor=none;align=left;verticalAlign=top;spacingLeft=4;spacingRight=4;overflow=hidden;rotatable=0;points=[[0,0.5],[1,0.5]];portConstraint=eastwest;whiteSpace=wrap;html=1;" parent="nPPL16FtD3WXAmP0PZX--21" vertex="1">
          <mxGeometry y="52" width="140" height="26" as="geometry" />
        </mxCell>
        <mxCell id="nPPL16FtD3WXAmP0PZX--24" value="houseNumber" style="text;strokeColor=none;fillColor=none;align=left;verticalAlign=top;spacingLeft=4;spacingRight=4;overflow=hidden;rotatable=0;points=[[0,0.5],[1,0.5]];portConstraint=eastwest;whiteSpace=wrap;html=1;" parent="nPPL16FtD3WXAmP0PZX--21" vertex="1">
          <mxGeometry y="78" width="140" height="26" as="geometry" />
        </mxCell>
        <mxCell id="nPPL16FtD3WXAmP0PZX--25" value="zipCode" style="text;strokeColor=none;fillColor=none;align=left;verticalAlign=top;spacingLeft=4;spacingRight=4;overflow=hidden;rotatable=0;points=[[0,0.5],[1,0.5]];portConstraint=eastwest;whiteSpace=wrap;html=1;" parent="nPPL16FtD3WXAmP0PZX--21" vertex="1">
          <mxGeometry y="104" width="140" height="26" as="geometry" />
        </mxCell>
        <mxCell id="nPPL16FtD3WXAmP0PZX--26" style="edgeStyle=orthogonalEdgeStyle;rounded=0;orthogonalLoop=1;jettySize=auto;html=1;entryX=1;entryY=0.5;entryDx=0;entryDy=0;endArrow=ERmandOne;endFill=0;startArrow=ERmandOne;startFill=0;" parent="1" source="nPPL16FtD3WXAmP0PZX--22" target="WRttjeE3I7V11c35sN3d-2" edge="1">
          <mxGeometry relative="1" as="geometry" />
        </mxCell>
        <mxCell id="nPPL16FtD3WXAmP0PZX--28" style="edgeStyle=orthogonalEdgeStyle;rounded=0;orthogonalLoop=1;jettySize=auto;html=1;entryX=1;entryY=0.5;entryDx=0;entryDy=0;exitX=0;exitY=0.5;exitDx=0;exitDy=0;endArrow=ERmandOne;endFill=0;startArrow=ERmandOne;startFill=0;" parent="1" source="WRttjeE3I7V11c35sN3d-12" target="nPPL16FtD3WXAmP0PZX--7" edge="1">
          <mxGeometry relative="1" as="geometry" />
        </mxCell>
      </root>
    </mxGraphModel>
  </diagram>
  <diagram name="domain-class-diagram" id="JJVurvlEyc_0ED4Fi8cP">
    <mxGraphModel dx="1659" dy="1074" grid="0" gridSize="10" guides="0" tooltips="1" connect="0" arrows="0" fold="1" page="0" pageScale="1" pageWidth="1169" pageHeight="827" math="0" shadow="0">
      <root>
        <mxCell id="QaSKw-nrApPyZHBpUXGP-0" />
        <mxCell id="QaSKw-nrApPyZHBpUXGP-1" parent="QaSKw-nrApPyZHBpUXGP-0" />
        <mxCell id="tCyhS_AfBA6SBSUrJkXq-4" value="&lt;b&gt;Notification-Service&lt;/b&gt;" style="rounded=0;whiteSpace=wrap;html=1;fillColor=none;strokeColor=#9673a6;strokeWidth=3;verticalAlign=top;" parent="QaSKw-nrApPyZHBpUXGP-1" vertex="1">
          <mxGeometry x="-210" y="236" width="200" height="200" as="geometry" />
        </mxCell>
        <mxCell id="tCyhS_AfBA6SBSUrJkXq-3" value="&lt;b&gt;Payment-Service&lt;/b&gt;" style="rounded=0;whiteSpace=wrap;html=1;fillColor=none;strokeColor=#d79b00;strokeWidth=3;verticalAlign=top;" parent="QaSKw-nrApPyZHBpUXGP-1" vertex="1">
          <mxGeometry x="-210" y="-20" width="200" height="200" as="geometry" />
        </mxCell>
        <mxCell id="tCyhS_AfBA6SBSUrJkXq-2" value="&lt;b&gt;Product-Service&lt;/b&gt;" style="rounded=0;whiteSpace=wrap;html=1;fillColor=none;strokeColor=#d6b656;strokeWidth=3;verticalAlign=top;" parent="QaSKw-nrApPyZHBpUXGP-1" vertex="1">
          <mxGeometry x="490" y="40" width="360" height="320" as="geometry" />
        </mxCell>
        <mxCell id="tCyhS_AfBA6SBSUrJkXq-1" value="&lt;b&gt;Order-Service&lt;/b&gt;" style="rounded=0;whiteSpace=wrap;html=1;fillColor=none;strokeColor=#6c8ebf;strokeWidth=3;verticalAlign=top;" parent="QaSKw-nrApPyZHBpUXGP-1" vertex="1">
          <mxGeometry x="50" y="150" width="370" height="350" as="geometry" />
        </mxCell>
        <mxCell id="tCyhS_AfBA6SBSUrJkXq-0" value="&lt;b&gt;Customer-Service&lt;/b&gt;" style="rounded=0;whiteSpace=wrap;html=1;fillColor=none;strokeColor=#82b366;strokeWidth=3;verticalAlign=top;" parent="QaSKw-nrApPyZHBpUXGP-1" vertex="1">
          <mxGeometry x="40" y="-170" width="490" height="200" as="geometry" />
        </mxCell>
        <mxCell id="QaSKw-nrApPyZHBpUXGP-2" style="edgeStyle=orthogonalEdgeStyle;rounded=0;orthogonalLoop=1;jettySize=auto;html=1;entryX=0.5;entryY=0;entryDx=0;entryDy=0;endArrow=ERmany;endFill=0;startArrow=ERmandOne;startFill=0;" parent="QaSKw-nrApPyZHBpUXGP-1" source="QaSKw-nrApPyZHBpUXGP-3" target="QaSKw-nrApPyZHBpUXGP-9" edge="1">
          <mxGeometry relative="1" as="geometry" />
        </mxCell>
        <mxCell id="QaSKw-nrApPyZHBpUXGP-3" value="Customer" style="swimlane;fontStyle=0;childLayout=stackLayout;horizontal=1;startSize=26;fillColor=#d5e8d4;horizontalStack=0;resizeParent=1;resizeParentMax=0;resizeLast=0;collapsible=1;marginBottom=0;whiteSpace=wrap;html=1;strokeColor=#82b366;" parent="QaSKw-nrApPyZHBpUXGP-1" vertex="1">
          <mxGeometry x="70" y="-130" width="140" height="130" as="geometry" />
        </mxCell>
        <mxCell id="QaSKw-nrApPyZHBpUXGP-4" value="id" style="text;strokeColor=none;fillColor=none;align=left;verticalAlign=top;spacingLeft=4;spacingRight=4;overflow=hidden;rotatable=0;points=[[0,0.5],[1,0.5]];portConstraint=eastwest;whiteSpace=wrap;html=1;" parent="QaSKw-nrApPyZHBpUXGP-3" vertex="1">
          <mxGeometry y="26" width="140" height="26" as="geometry" />
        </mxCell>
        <mxCell id="QaSKw-nrApPyZHBpUXGP-5" value="firstname" style="text;strokeColor=none;fillColor=none;align=left;verticalAlign=top;spacingLeft=4;spacingRight=4;overflow=hidden;rotatable=0;points=[[0,0.5],[1,0.5]];portConstraint=eastwest;whiteSpace=wrap;html=1;" parent="QaSKw-nrApPyZHBpUXGP-3" vertex="1">
          <mxGeometry y="52" width="140" height="26" as="geometry" />
        </mxCell>
        <mxCell id="QaSKw-nrApPyZHBpUXGP-6" value="lastname" style="text;strokeColor=none;fillColor=none;align=left;verticalAlign=top;spacingLeft=4;spacingRight=4;overflow=hidden;rotatable=0;points=[[0,0.5],[1,0.5]];portConstraint=eastwest;whiteSpace=wrap;html=1;" parent="QaSKw-nrApPyZHBpUXGP-3" vertex="1">
          <mxGeometry y="78" width="140" height="26" as="geometry" />
        </mxCell>
        <mxCell id="QaSKw-nrApPyZHBpUXGP-7" value="email" style="text;strokeColor=none;fillColor=none;align=left;verticalAlign=top;spacingLeft=4;spacingRight=4;overflow=hidden;rotatable=0;points=[[0,0.5],[1,0.5]];portConstraint=eastwest;whiteSpace=wrap;html=1;" parent="QaSKw-nrApPyZHBpUXGP-3" vertex="1">
          <mxGeometry y="104" width="140" height="26" as="geometry" />
        </mxCell>
        <mxCell id="QaSKw-nrApPyZHBpUXGP-8" style="edgeStyle=orthogonalEdgeStyle;rounded=0;orthogonalLoop=1;jettySize=auto;html=1;entryX=0;entryY=0.5;entryDx=0;entryDy=0;endArrow=ERmany;endFill=0;startArrow=ERmandOne;startFill=0;" parent="QaSKw-nrApPyZHBpUXGP-1" source="QaSKw-nrApPyZHBpUXGP-9" target="QaSKw-nrApPyZHBpUXGP-26" edge="1">
          <mxGeometry relative="1" as="geometry" />
        </mxCell>
        <mxCell id="QaSKw-nrApPyZHBpUXGP-9" value="Order" style="swimlane;fontStyle=0;childLayout=stackLayout;horizontal=1;startSize=26;fillColor=#dae8fc;horizontalStack=0;resizeParent=1;resizeParentMax=0;resizeLast=0;collapsible=1;marginBottom=0;whiteSpace=wrap;html=1;strokeColor=#6c8ebf;" parent="QaSKw-nrApPyZHBpUXGP-1" vertex="1">
          <mxGeometry x="70" y="200" width="140" height="104" as="geometry" />
        </mxCell>
        <mxCell id="QaSKw-nrApPyZHBpUXGP-10" value="id" style="text;strokeColor=none;fillColor=none;align=left;verticalAlign=top;spacingLeft=4;spacingRight=4;overflow=hidden;rotatable=0;points=[[0,0.5],[1,0.5]];portConstraint=eastwest;whiteSpace=wrap;html=1;" parent="QaSKw-nrApPyZHBpUXGP-9" vertex="1">
          <mxGeometry y="26" width="140" height="26" as="geometry" />
        </mxCell>
        <mxCell id="QaSKw-nrApPyZHBpUXGP-11" value="orderDate" style="text;strokeColor=none;fillColor=none;align=left;verticalAlign=top;spacingLeft=4;spacingRight=4;overflow=hidden;rotatable=0;points=[[0,0.5],[1,0.5]];portConstraint=eastwest;whiteSpace=wrap;html=1;" parent="QaSKw-nrApPyZHBpUXGP-9" vertex="1">
          <mxGeometry y="52" width="140" height="26" as="geometry" />
        </mxCell>
        <mxCell id="QaSKw-nrApPyZHBpUXGP-12" value="reference" style="text;strokeColor=none;fillColor=none;align=left;verticalAlign=top;spacingLeft=4;spacingRight=4;overflow=hidden;rotatable=0;points=[[0,0.5],[1,0.5]];portConstraint=eastwest;whiteSpace=wrap;html=1;" parent="QaSKw-nrApPyZHBpUXGP-9" vertex="1">
          <mxGeometry y="78" width="140" height="26" as="geometry" />
        </mxCell>
        <mxCell id="QaSKw-nrApPyZHBpUXGP-13" value="Product" style="swimlane;fontStyle=0;childLayout=stackLayout;horizontal=1;startSize=26;fillColor=#fff2cc;horizontalStack=0;resizeParent=1;resizeParentMax=0;resizeLast=0;collapsible=1;marginBottom=0;whiteSpace=wrap;html=1;strokeColor=#d6b656;" parent="QaSKw-nrApPyZHBpUXGP-1" vertex="1">
          <mxGeometry x="530" y="182" width="140" height="156" as="geometry" />
        </mxCell>
        <mxCell id="QaSKw-nrApPyZHBpUXGP-14" value="id" style="text;strokeColor=none;fillColor=none;align=left;verticalAlign=top;spacingLeft=4;spacingRight=4;overflow=hidden;rotatable=0;points=[[0,0.5],[1,0.5]];portConstraint=eastwest;whiteSpace=wrap;html=1;" parent="QaSKw-nrApPyZHBpUXGP-13" vertex="1">
          <mxGeometry y="26" width="140" height="26" as="geometry" />
        </mxCell>
        <mxCell id="QaSKw-nrApPyZHBpUXGP-15" value="name" style="text;strokeColor=none;fillColor=none;align=left;verticalAlign=top;spacingLeft=4;spacingRight=4;overflow=hidden;rotatable=0;points=[[0,0.5],[1,0.5]];portConstraint=eastwest;whiteSpace=wrap;html=1;" parent="QaSKw-nrApPyZHBpUXGP-13" vertex="1">
          <mxGeometry y="52" width="140" height="26" as="geometry" />
        </mxCell>
        <mxCell id="QaSKw-nrApPyZHBpUXGP-16" value="description" style="text;strokeColor=none;fillColor=none;align=left;verticalAlign=top;spacingLeft=4;spacingRight=4;overflow=hidden;rotatable=0;points=[[0,0.5],[1,0.5]];portConstraint=eastwest;whiteSpace=wrap;html=1;" parent="QaSKw-nrApPyZHBpUXGP-13" vertex="1">
          <mxGeometry y="78" width="140" height="26" as="geometry" />
        </mxCell>
        <mxCell id="QaSKw-nrApPyZHBpUXGP-17" value="availableQuantity" style="text;strokeColor=none;fillColor=none;align=left;verticalAlign=top;spacingLeft=4;spacingRight=4;overflow=hidden;rotatable=0;points=[[0,0.5],[1,0.5]];portConstraint=eastwest;whiteSpace=wrap;html=1;" parent="QaSKw-nrApPyZHBpUXGP-13" vertex="1">
          <mxGeometry y="104" width="140" height="26" as="geometry" />
        </mxCell>
        <mxCell id="QaSKw-nrApPyZHBpUXGP-18" value="price" style="text;strokeColor=none;fillColor=none;align=left;verticalAlign=top;spacingLeft=4;spacingRight=4;overflow=hidden;rotatable=0;points=[[0,0.5],[1,0.5]];portConstraint=eastwest;whiteSpace=wrap;html=1;" parent="QaSKw-nrApPyZHBpUXGP-13" vertex="1">
          <mxGeometry y="130" width="140" height="26" as="geometry" />
        </mxCell>
        <mxCell id="QaSKw-nrApPyZHBpUXGP-19" style="edgeStyle=orthogonalEdgeStyle;rounded=0;orthogonalLoop=1;jettySize=auto;html=1;entryX=0.5;entryY=0;entryDx=0;entryDy=0;startArrow=ERmandOne;startFill=0;endArrow=ERmandOne;endFill=0;" parent="QaSKw-nrApPyZHBpUXGP-1" source="QaSKw-nrApPyZHBpUXGP-20" target="QaSKw-nrApPyZHBpUXGP-28" edge="1">
          <mxGeometry relative="1" as="geometry" />
        </mxCell>
        <mxCell id="QaSKw-nrApPyZHBpUXGP-20" value="Payment" style="swimlane;fontStyle=0;childLayout=stackLayout;horizontal=1;startSize=26;fillColor=#ffe6cc;horizontalStack=0;resizeParent=1;resizeParentMax=0;resizeLast=0;collapsible=1;marginBottom=0;whiteSpace=wrap;html=1;strokeColor=#d79b00;" parent="QaSKw-nrApPyZHBpUXGP-1" vertex="1">
          <mxGeometry x="-180" y="20" width="140" height="130" as="geometry" />
        </mxCell>
        <mxCell id="QaSKw-nrApPyZHBpUXGP-21" value="id" style="text;strokeColor=none;fillColor=none;align=left;verticalAlign=top;spacingLeft=4;spacingRight=4;overflow=hidden;rotatable=0;points=[[0,0.5],[1,0.5]];portConstraint=eastwest;whiteSpace=wrap;html=1;" parent="QaSKw-nrApPyZHBpUXGP-20" vertex="1">
          <mxGeometry y="26" width="140" height="26" as="geometry" />
        </mxCell>
        <mxCell id="QaSKw-nrApPyZHBpUXGP-22" value="reference" style="text;strokeColor=none;fillColor=none;align=left;verticalAlign=top;spacingLeft=4;spacingRight=4;overflow=hidden;rotatable=0;points=[[0,0.5],[1,0.5]];portConstraint=eastwest;whiteSpace=wrap;html=1;" parent="QaSKw-nrApPyZHBpUXGP-20" vertex="1">
          <mxGeometry y="52" width="140" height="26" as="geometry" />
        </mxCell>
        <mxCell id="QaSKw-nrApPyZHBpUXGP-23" value="amount" style="text;strokeColor=none;fillColor=none;align=left;verticalAlign=top;spacingLeft=4;spacingRight=4;overflow=hidden;rotatable=0;points=[[0,0.5],[1,0.5]];portConstraint=eastwest;whiteSpace=wrap;html=1;" parent="QaSKw-nrApPyZHBpUXGP-20" vertex="1">
          <mxGeometry y="78" width="140" height="26" as="geometry" />
        </mxCell>
        <mxCell id="QaSKw-nrApPyZHBpUXGP-24" value="status" style="text;strokeColor=none;fillColor=none;align=left;verticalAlign=top;spacingLeft=4;spacingRight=4;overflow=hidden;rotatable=0;points=[[0,0.5],[1,0.5]];portConstraint=eastwest;whiteSpace=wrap;html=1;" parent="QaSKw-nrApPyZHBpUXGP-20" vertex="1">
          <mxGeometry y="104" width="140" height="26" as="geometry" />
        </mxCell>
        <mxCell id="QaSKw-nrApPyZHBpUXGP-25" value="OrderLine" style="swimlane;fontStyle=0;childLayout=stackLayout;horizontal=1;startSize=26;fillColor=#dae8fc;horizontalStack=0;resizeParent=1;resizeParentMax=0;resizeLast=0;collapsible=1;marginBottom=0;whiteSpace=wrap;html=1;strokeColor=#6c8ebf;" parent="QaSKw-nrApPyZHBpUXGP-1" vertex="1">
          <mxGeometry x="240" y="380" width="140" height="78" as="geometry" />
        </mxCell>
        <mxCell id="QaSKw-nrApPyZHBpUXGP-26" value="id" style="text;strokeColor=none;fillColor=none;align=left;verticalAlign=top;spacingLeft=4;spacingRight=4;overflow=hidden;rotatable=0;points=[[0,0.5],[1,0.5]];portConstraint=eastwest;whiteSpace=wrap;html=1;" parent="QaSKw-nrApPyZHBpUXGP-25" vertex="1">
          <mxGeometry y="26" width="140" height="26" as="geometry" />
        </mxCell>
        <mxCell id="QaSKw-nrApPyZHBpUXGP-27" value="quantity" style="text;strokeColor=none;fillColor=none;align=left;verticalAlign=top;spacingLeft=4;spacingRight=4;overflow=hidden;rotatable=0;points=[[0,0.5],[1,0.5]];portConstraint=eastwest;whiteSpace=wrap;html=1;" parent="QaSKw-nrApPyZHBpUXGP-25" vertex="1">
          <mxGeometry y="52" width="140" height="26" as="geometry" />
        </mxCell>
        <mxCell id="QaSKw-nrApPyZHBpUXGP-28" value="Notification" style="swimlane;fontStyle=0;childLayout=stackLayout;horizontal=1;startSize=26;fillColor=#e1d5e7;horizontalStack=0;resizeParent=1;resizeParentMax=0;resizeLast=0;collapsible=1;marginBottom=0;whiteSpace=wrap;html=1;strokeColor=#9673a6;" parent="QaSKw-nrApPyZHBpUXGP-1" vertex="1">
          <mxGeometry x="-180" y="270" width="140" height="156" as="geometry" />
        </mxCell>
        <mxCell id="QaSKw-nrApPyZHBpUXGP-29" value="id" style="text;strokeColor=none;fillColor=none;align=left;verticalAlign=top;spacingLeft=4;spacingRight=4;overflow=hidden;rotatable=0;points=[[0,0.5],[1,0.5]];portConstraint=eastwest;whiteSpace=wrap;html=1;" parent="QaSKw-nrApPyZHBpUXGP-28" vertex="1">
          <mxGeometry y="26" width="140" height="26" as="geometry" />
        </mxCell>
        <mxCell id="QaSKw-nrApPyZHBpUXGP-30" value="sender" style="text;strokeColor=none;fillColor=none;align=left;verticalAlign=top;spacingLeft=4;spacingRight=4;overflow=hidden;rotatable=0;points=[[0,0.5],[1,0.5]];portConstraint=eastwest;whiteSpace=wrap;html=1;" parent="QaSKw-nrApPyZHBpUXGP-28" vertex="1">
          <mxGeometry y="52" width="140" height="26" as="geometry" />
        </mxCell>
        <mxCell id="QaSKw-nrApPyZHBpUXGP-31" value="recepient" style="text;strokeColor=none;fillColor=none;align=left;verticalAlign=top;spacingLeft=4;spacingRight=4;overflow=hidden;rotatable=0;points=[[0,0.5],[1,0.5]];portConstraint=eastwest;whiteSpace=wrap;html=1;" parent="QaSKw-nrApPyZHBpUXGP-28" vertex="1">
          <mxGeometry y="78" width="140" height="26" as="geometry" />
        </mxCell>
        <mxCell id="QaSKw-nrApPyZHBpUXGP-32" value="content" style="text;strokeColor=none;fillColor=none;align=left;verticalAlign=top;spacingLeft=4;spacingRight=4;overflow=hidden;rotatable=0;points=[[0,0.5],[1,0.5]];portConstraint=eastwest;whiteSpace=wrap;html=1;" parent="QaSKw-nrApPyZHBpUXGP-28" vertex="1">
          <mxGeometry y="104" width="140" height="26" as="geometry" />
        </mxCell>
        <mxCell id="QaSKw-nrApPyZHBpUXGP-33" value="date" style="text;strokeColor=none;fillColor=none;align=left;verticalAlign=top;spacingLeft=4;spacingRight=4;overflow=hidden;rotatable=0;points=[[0,0.5],[1,0.5]];portConstraint=eastwest;whiteSpace=wrap;html=1;" parent="QaSKw-nrApPyZHBpUXGP-28" vertex="1">
          <mxGeometry y="130" width="140" height="26" as="geometry" />
        </mxCell>
        <mxCell id="QaSKw-nrApPyZHBpUXGP-34" style="edgeStyle=orthogonalEdgeStyle;rounded=0;orthogonalLoop=1;jettySize=auto;html=1;entryX=1;entryY=0.5;entryDx=0;entryDy=0;endArrow=ERmany;endFill=0;startArrow=ERmandOne;startFill=0;" parent="QaSKw-nrApPyZHBpUXGP-1" source="QaSKw-nrApPyZHBpUXGP-16" target="QaSKw-nrApPyZHBpUXGP-26" edge="1">
          <mxGeometry relative="1" as="geometry" />
        </mxCell>
        <mxCell id="QaSKw-nrApPyZHBpUXGP-35" style="edgeStyle=orthogonalEdgeStyle;rounded=0;orthogonalLoop=1;jettySize=auto;html=1;startArrow=ERmandOne;startFill=0;endArrow=ERmandOne;endFill=0;" parent="QaSKw-nrApPyZHBpUXGP-1" source="QaSKw-nrApPyZHBpUXGP-10" target="QaSKw-nrApPyZHBpUXGP-21" edge="1">
          <mxGeometry relative="1" as="geometry" />
        </mxCell>
        <mxCell id="QaSKw-nrApPyZHBpUXGP-36" style="edgeStyle=orthogonalEdgeStyle;rounded=0;orthogonalLoop=1;jettySize=auto;html=1;entryX=1;entryY=0.5;entryDx=0;entryDy=0;endArrow=ERmany;endFill=0;startArrow=ERmandOne;startFill=0;" parent="QaSKw-nrApPyZHBpUXGP-1" source="QaSKw-nrApPyZHBpUXGP-37" target="QaSKw-nrApPyZHBpUXGP-14" edge="1">
          <mxGeometry relative="1" as="geometry" />
        </mxCell>
        <mxCell id="QaSKw-nrApPyZHBpUXGP-37" value="Category" style="swimlane;fontStyle=0;childLayout=stackLayout;horizontal=1;startSize=26;fillColor=#fff2cc;horizontalStack=0;resizeParent=1;resizeParentMax=0;resizeLast=0;collapsible=1;marginBottom=0;whiteSpace=wrap;html=1;strokeColor=#d6b656;" parent="QaSKw-nrApPyZHBpUXGP-1" vertex="1">
          <mxGeometry x="690" y="76" width="140" height="104" as="geometry" />
        </mxCell>
        <mxCell id="QaSKw-nrApPyZHBpUXGP-38" value="id" style="text;strokeColor=none;fillColor=none;align=left;verticalAlign=top;spacingLeft=4;spacingRight=4;overflow=hidden;rotatable=0;points=[[0,0.5],[1,0.5]];portConstraint=eastwest;whiteSpace=wrap;html=1;" parent="QaSKw-nrApPyZHBpUXGP-37" vertex="1">
          <mxGeometry y="26" width="140" height="26" as="geometry" />
        </mxCell>
        <mxCell id="QaSKw-nrApPyZHBpUXGP-39" value="name" style="text;strokeColor=none;fillColor=none;align=left;verticalAlign=top;spacingLeft=4;spacingRight=4;overflow=hidden;rotatable=0;points=[[0,0.5],[1,0.5]];portConstraint=eastwest;whiteSpace=wrap;html=1;" parent="QaSKw-nrApPyZHBpUXGP-37" vertex="1">
          <mxGeometry y="52" width="140" height="26" as="geometry" />
        </mxCell>
        <mxCell id="QaSKw-nrApPyZHBpUXGP-40" value="description" style="text;strokeColor=none;fillColor=none;align=left;verticalAlign=top;spacingLeft=4;spacingRight=4;overflow=hidden;rotatable=0;points=[[0,0.5],[1,0.5]];portConstraint=eastwest;whiteSpace=wrap;html=1;" parent="QaSKw-nrApPyZHBpUXGP-37" vertex="1">
          <mxGeometry y="78" width="140" height="26" as="geometry" />
        </mxCell>
        <mxCell id="QaSKw-nrApPyZHBpUXGP-41" value="Address" style="swimlane;fontStyle=0;childLayout=stackLayout;horizontal=1;startSize=26;fillColor=#d5e8d4;horizontalStack=0;resizeParent=1;resizeParentMax=0;resizeLast=0;collapsible=1;marginBottom=0;whiteSpace=wrap;html=1;strokeColor=#82b366;" parent="QaSKw-nrApPyZHBpUXGP-1" vertex="1">
          <mxGeometry x="370" y="-130" width="140" height="130" as="geometry" />
        </mxCell>
        <mxCell id="QaSKw-nrApPyZHBpUXGP-42" value="id" style="text;strokeColor=none;fillColor=none;align=left;verticalAlign=top;spacingLeft=4;spacingRight=4;overflow=hidden;rotatable=0;points=[[0,0.5],[1,0.5]];portConstraint=eastwest;whiteSpace=wrap;html=1;" parent="QaSKw-nrApPyZHBpUXGP-41" vertex="1">
          <mxGeometry y="26" width="140" height="26" as="geometry" />
        </mxCell>
        <mxCell id="QaSKw-nrApPyZHBpUXGP-43" value="street" style="text;strokeColor=none;fillColor=none;align=left;verticalAlign=top;spacingLeft=4;spacingRight=4;overflow=hidden;rotatable=0;points=[[0,0.5],[1,0.5]];portConstraint=eastwest;whiteSpace=wrap;html=1;" parent="QaSKw-nrApPyZHBpUXGP-41" vertex="1">
          <mxGeometry y="52" width="140" height="26" as="geometry" />
        </mxCell>
        <mxCell id="QaSKw-nrApPyZHBpUXGP-44" value="houseNumber" style="text;strokeColor=none;fillColor=none;align=left;verticalAlign=top;spacingLeft=4;spacingRight=4;overflow=hidden;rotatable=0;points=[[0,0.5],[1,0.5]];portConstraint=eastwest;whiteSpace=wrap;html=1;" parent="QaSKw-nrApPyZHBpUXGP-41" vertex="1">
          <mxGeometry y="78" width="140" height="26" as="geometry" />
        </mxCell>
        <mxCell id="QaSKw-nrApPyZHBpUXGP-45" value="zipCode" style="text;strokeColor=none;fillColor=none;align=left;verticalAlign=top;spacingLeft=4;spacingRight=4;overflow=hidden;rotatable=0;points=[[0,0.5],[1,0.5]];portConstraint=eastwest;whiteSpace=wrap;html=1;" parent="QaSKw-nrApPyZHBpUXGP-41" vertex="1">
          <mxGeometry y="104" width="140" height="26" as="geometry" />
        </mxCell>
        <mxCell id="QaSKw-nrApPyZHBpUXGP-46" style="edgeStyle=orthogonalEdgeStyle;rounded=0;orthogonalLoop=1;jettySize=auto;html=1;entryX=1;entryY=0.5;entryDx=0;entryDy=0;endArrow=ERmandOne;endFill=0;startArrow=ERmandOne;startFill=0;" parent="QaSKw-nrApPyZHBpUXGP-1" source="QaSKw-nrApPyZHBpUXGP-42" target="QaSKw-nrApPyZHBpUXGP-4" edge="1">
          <mxGeometry relative="1" as="geometry" />
        </mxCell>
        <mxCell id="QaSKw-nrApPyZHBpUXGP-47" style="edgeStyle=orthogonalEdgeStyle;rounded=0;orthogonalLoop=1;jettySize=auto;html=1;entryX=1;entryY=0.5;entryDx=0;entryDy=0;exitX=0;exitY=0.5;exitDx=0;exitDy=0;endArrow=ERmandOne;endFill=0;startArrow=ERmandOne;startFill=0;" parent="QaSKw-nrApPyZHBpUXGP-1" source="QaSKw-nrApPyZHBpUXGP-11" target="QaSKw-nrApPyZHBpUXGP-29" edge="1">
          <mxGeometry relative="1" as="geometry" />
        </mxCell>
      </root>
    </mxGraphModel>
  </diagram>
  <diagram name="async-communication" id="IsRU1xIx3Orjgz8iM8Wl">
    <mxGraphModel dx="1659" dy="1124" grid="0" gridSize="10" guides="0" tooltips="1" connect="0" arrows="0" fold="1" page="0" pageScale="1" pageWidth="1169" pageHeight="827" math="0" shadow="0">
      <root>
        <mxCell id="0" />
        <mxCell id="1" parent="0" />
        <mxCell id="6x_ADi77GeF3N2mLvvYw-3" value="" style="shape=cylinder3;whiteSpace=wrap;html=1;boundedLbl=1;backgroundOutline=1;size=15;rotation=90;" parent="1" vertex="1">
          <mxGeometry x="122.5" y="-112.5" width="155" height="390" as="geometry" />
        </mxCell>
        <mxCell id="BDEwJi6k6QcXwIYJIIJd-1" style="edgeStyle=orthogonalEdgeStyle;rounded=0;orthogonalLoop=1;jettySize=auto;html=1;entryX=0;entryY=0.5;entryDx=0;entryDy=0;flowAnimation=1;strokeWidth=2;fillColor=#1ba1e2;strokeColor=#006EAF;" parent="1" source="6x_ADi77GeF3N2mLvvYw-1" target="KhQSRNgivRpIOInoGsQY-10" edge="1">
          <mxGeometry relative="1" as="geometry" />
        </mxCell>
        <mxCell id="6x_ADi77GeF3N2mLvvYw-1" value="Order service" style="shape=image;verticalLabelPosition=bottom;labelBackgroundColor=default;verticalAlign=top;aspect=fixed;imageAspect=0;image=https://images.ctfassets.net/gt6dp23g0g38/5DqlQtFKecFlkqQ8YGDT2p/aa945b648f44dd872e9a1b89f7d203ef/springboot.png;" parent="1" vertex="1">
          <mxGeometry x="-250" y="-40" width="77.94" height="70" as="geometry" />
        </mxCell>
        <mxCell id="BDEwJi6k6QcXwIYJIIJd-2" style="edgeStyle=orthogonalEdgeStyle;rounded=0;orthogonalLoop=1;jettySize=auto;html=1;entryX=0;entryY=0.5;entryDx=0;entryDy=0;flowAnimation=1;strokeWidth=2;fillColor=#1ba1e2;strokeColor=#006EAF;" parent="1" source="6x_ADi77GeF3N2mLvvYw-2" target="KhQSRNgivRpIOInoGsQY-2" edge="1">
          <mxGeometry relative="1" as="geometry" />
        </mxCell>
        <mxCell id="6x_ADi77GeF3N2mLvvYw-2" value="Payment service" style="shape=image;verticalLabelPosition=bottom;labelBackgroundColor=default;verticalAlign=top;aspect=fixed;imageAspect=0;image=https://images.ctfassets.net/gt6dp23g0g38/5DqlQtFKecFlkqQ8YGDT2p/aa945b648f44dd872e9a1b89f7d203ef/springboot.png;" parent="1" vertex="1">
          <mxGeometry x="-250" y="110" width="77.94" height="70" as="geometry" />
        </mxCell>
        <mxCell id="BDEwJi6k6QcXwIYJIIJd-3" style="edgeStyle=entityRelationEdgeStyle;rounded=0;orthogonalLoop=1;jettySize=auto;html=1;entryX=1;entryY=0.5;entryDx=0;entryDy=0;flowAnimation=1;strokeWidth=2;fillColor=#60a917;strokeColor=#2D7600;" parent="1" source="6x_ADi77GeF3N2mLvvYw-4" target="KhQSRNgivRpIOInoGsQY-10" edge="1">
          <mxGeometry relative="1" as="geometry" />
        </mxCell>
        <mxCell id="BDEwJi6k6QcXwIYJIIJd-4" style="edgeStyle=entityRelationEdgeStyle;rounded=0;orthogonalLoop=1;jettySize=auto;html=1;entryX=1;entryY=0.5;entryDx=0;entryDy=0;flowAnimation=1;strokeWidth=2;fillColor=#60a917;strokeColor=#2D7600;" parent="1" source="6x_ADi77GeF3N2mLvvYw-4" target="KhQSRNgivRpIOInoGsQY-2" edge="1">
          <mxGeometry relative="1" as="geometry" />
        </mxCell>
        <mxCell id="bptwb3j-g_TwmTFqLHP_-3" style="edgeStyle=orthogonalEdgeStyle;rounded=0;orthogonalLoop=1;jettySize=auto;html=1;shape=link;flowAnimation=1;strokeWidth=2;" parent="1" source="6x_ADi77GeF3N2mLvvYw-4" target="bptwb3j-g_TwmTFqLHP_-1" edge="1">
          <mxGeometry relative="1" as="geometry" />
        </mxCell>
        <mxCell id="bptwb3j-g_TwmTFqLHP_-5" style="edgeStyle=orthogonalEdgeStyle;rounded=0;orthogonalLoop=1;jettySize=auto;html=1;shape=link;" parent="1" source="6x_ADi77GeF3N2mLvvYw-4" target="bptwb3j-g_TwmTFqLHP_-4" edge="1">
          <mxGeometry relative="1" as="geometry" />
        </mxCell>
        <mxCell id="6x_ADi77GeF3N2mLvvYw-4" value="Notification service" style="shape=image;verticalLabelPosition=bottom;labelBackgroundColor=default;verticalAlign=top;aspect=fixed;imageAspect=0;image=https://images.ctfassets.net/gt6dp23g0g38/5DqlQtFKecFlkqQ8YGDT2p/aa945b648f44dd872e9a1b89f7d203ef/springboot.png;" parent="1" vertex="1">
          <mxGeometry x="550" y="47.5" width="77.94" height="70" as="geometry" />
        </mxCell>
        <mxCell id="KhQSRNgivRpIOInoGsQY-1" value="" style="group;fillColor=#dae8fc;strokeColor=#6c8ebf;container=0;" parent="1" vertex="1" connectable="0">
          <mxGeometry x="40" y="90" width="310" height="60" as="geometry" />
        </mxCell>
        <mxCell id="KhQSRNgivRpIOInoGsQY-2" value="payment-topic" style="rounded=0;whiteSpace=wrap;html=1;container=0;fillColor=#ffe6cc;strokeColor=#d79b00;verticalAlign=bottom;" parent="1" vertex="1">
          <mxGeometry x="40" y="90" width="310" height="60" as="geometry" />
        </mxCell>
        <mxCell id="KhQSRNgivRpIOInoGsQY-3" value="" style="shape=message;html=1;html=1;outlineConnect=0;labelPosition=center;verticalLabelPosition=bottom;align=center;verticalAlign=top;container=0;" parent="1" vertex="1">
          <mxGeometry x="50" y="107.5" width="40" height="25" as="geometry" />
        </mxCell>
        <mxCell id="KhQSRNgivRpIOInoGsQY-4" value="" style="shape=message;html=1;html=1;outlineConnect=0;labelPosition=center;verticalLabelPosition=bottom;align=center;verticalAlign=top;container=0;" parent="1" vertex="1">
          <mxGeometry x="100" y="107.5" width="40" height="25" as="geometry" />
        </mxCell>
        <mxCell id="KhQSRNgivRpIOInoGsQY-5" value="" style="shape=message;html=1;html=1;outlineConnect=0;labelPosition=center;verticalLabelPosition=bottom;align=center;verticalAlign=top;container=0;" parent="1" vertex="1">
          <mxGeometry x="150" y="107.5" width="40" height="25" as="geometry" />
        </mxCell>
        <mxCell id="KhQSRNgivRpIOInoGsQY-6" value="" style="shape=message;html=1;html=1;outlineConnect=0;labelPosition=center;verticalLabelPosition=bottom;align=center;verticalAlign=top;container=0;" parent="1" vertex="1">
          <mxGeometry x="200" y="107.5" width="40" height="25" as="geometry" />
        </mxCell>
        <mxCell id="KhQSRNgivRpIOInoGsQY-7" value="" style="shape=message;html=1;html=1;outlineConnect=0;labelPosition=center;verticalLabelPosition=bottom;align=center;verticalAlign=top;container=0;" parent="1" vertex="1">
          <mxGeometry x="250" y="107.5" width="40" height="25" as="geometry" />
        </mxCell>
        <mxCell id="KhQSRNgivRpIOInoGsQY-8" value="" style="shape=message;html=1;html=1;outlineConnect=0;labelPosition=center;verticalLabelPosition=bottom;align=center;verticalAlign=top;container=0;" parent="1" vertex="1">
          <mxGeometry x="300" y="107.5" width="40" height="25" as="geometry" />
        </mxCell>
        <mxCell id="KhQSRNgivRpIOInoGsQY-9" value="" style="group;fillColor=#dae8fc;strokeColor=#6c8ebf;container=0;" parent="1" vertex="1" connectable="0">
          <mxGeometry x="40" y="20" width="310" height="60" as="geometry" />
        </mxCell>
        <mxCell id="KhQSRNgivRpIOInoGsQY-10" value="order-topic" style="rounded=0;whiteSpace=wrap;html=1;container=0;fillColor=#dae8fc;strokeColor=#6c8ebf;verticalAlign=bottom;" parent="1" vertex="1">
          <mxGeometry x="40" y="20" width="310" height="60" as="geometry" />
        </mxCell>
        <mxCell id="KhQSRNgivRpIOInoGsQY-11" value="" style="shape=message;html=1;html=1;outlineConnect=0;labelPosition=center;verticalLabelPosition=bottom;align=center;verticalAlign=top;container=0;" parent="1" vertex="1">
          <mxGeometry x="50" y="37.5" width="40" height="25" as="geometry" />
        </mxCell>
        <mxCell id="KhQSRNgivRpIOInoGsQY-12" value="" style="shape=message;html=1;html=1;outlineConnect=0;labelPosition=center;verticalLabelPosition=bottom;align=center;verticalAlign=top;container=0;" parent="1" vertex="1">
          <mxGeometry x="100" y="37.5" width="40" height="25" as="geometry" />
        </mxCell>
        <mxCell id="KhQSRNgivRpIOInoGsQY-13" value="" style="shape=message;html=1;html=1;outlineConnect=0;labelPosition=center;verticalLabelPosition=bottom;align=center;verticalAlign=top;container=0;" parent="1" vertex="1">
          <mxGeometry x="150" y="37.5" width="40" height="25" as="geometry" />
        </mxCell>
        <mxCell id="KhQSRNgivRpIOInoGsQY-14" value="" style="shape=message;html=1;html=1;outlineConnect=0;labelPosition=center;verticalLabelPosition=bottom;align=center;verticalAlign=top;container=0;" parent="1" vertex="1">
          <mxGeometry x="200" y="37.5" width="40" height="25" as="geometry" />
        </mxCell>
        <mxCell id="KhQSRNgivRpIOInoGsQY-15" value="" style="shape=message;html=1;html=1;outlineConnect=0;labelPosition=center;verticalLabelPosition=bottom;align=center;verticalAlign=top;container=0;" parent="1" vertex="1">
          <mxGeometry x="250" y="37.5" width="40" height="25" as="geometry" />
        </mxCell>
        <mxCell id="KhQSRNgivRpIOInoGsQY-16" value="" style="shape=message;html=1;html=1;outlineConnect=0;labelPosition=center;verticalLabelPosition=bottom;align=center;verticalAlign=top;container=0;" parent="1" vertex="1">
          <mxGeometry x="300" y="37.5" width="40" height="25" as="geometry" />
        </mxCell>
        <mxCell id="BDEwJi6k6QcXwIYJIIJd-5" value="&lt;b&gt;Kafka Broker&lt;/b&gt;" style="text;html=1;align=center;verticalAlign=middle;resizable=0;points=[];autosize=1;strokeColor=none;fillColor=none;" parent="1" vertex="1">
          <mxGeometry x="122.5" y="160" width="100" height="30" as="geometry" />
        </mxCell>
        <mxCell id="bptwb3j-g_TwmTFqLHP_-1" value="" style="shape=image;verticalLabelPosition=bottom;labelBackgroundColor=default;verticalAlign=top;aspect=fixed;imageAspect=0;image=https://www.opc-router.de/wp-content/uploads/2021/03/mongodb_thumbnail.png;" parent="1" vertex="1">
          <mxGeometry x="553.65" y="204" width="70.63" height="95" as="geometry" />
        </mxCell>
        <mxCell id="bptwb3j-g_TwmTFqLHP_-2" value="" style="sketch=0;aspect=fixed;html=1;points=[];align=center;image;fontSize=12;image=img/lib/mscae/Docker.svg;fillColor=none;" parent="1" vertex="1">
          <mxGeometry x="520" y="258" width="50" height="41" as="geometry" />
        </mxCell>
        <mxCell id="bptwb3j-g_TwmTFqLHP_-4" value="" style="verticalLabelPosition=bottom;html=1;verticalAlign=top;strokeWidth=1;align=center;outlineConnect=0;dashed=0;outlineConnect=0;shape=mxgraph.aws3d.email_service;fillColor=#dae8fc;strokeColor=#6c8ebf;aspect=fixed;" parent="1" vertex="1">
          <mxGeometry x="560.65" y="-100" width="56.62" height="72" as="geometry" />
        </mxCell>
      </root>
    </mxGraphModel>
  </diagram>
  <diagram name="simple-ms-app" id="dsZ-nh_AmShaOE5QAm0Z">
    <mxGraphModel dx="2071" dy="1214" grid="0" gridSize="10" guides="1" tooltips="1" connect="0" arrows="0" fold="1" page="0" pageScale="1" pageWidth="1169" pageHeight="827" background="none" math="0" shadow="0">
      <root>
        <mxCell id="Mkz1561AUryzhJ5JRjOw-0" />
        <mxCell id="Mkz1561AUryzhJ5JRjOw-1" parent="Mkz1561AUryzhJ5JRjOw-0" />
        <mxCell id="Mkz1561AUryzhJ5JRjOw-2" value="" style="rounded=0;whiteSpace=wrap;html=1;sketch=0;fillColor=none;" parent="Mkz1561AUryzhJ5JRjOw-1" vertex="1">
          <mxGeometry x="213" y="66" width="938" height="595" as="geometry" />
        </mxCell>
        <mxCell id="Mkz1561AUryzhJ5JRjOw-3" style="edgeStyle=orthogonalEdgeStyle;rounded=0;orthogonalLoop=1;jettySize=auto;html=1;exitX=0.25;exitY=1;exitDx=0;exitDy=0;entryX=0.5;entryY=0;entryDx=0;entryDy=0;strokeColor=default;strokeWidth=2;fontSize=15;endSize=6;dashed=1;" parent="Mkz1561AUryzhJ5JRjOw-1" source="Mkz1561AUryzhJ5JRjOw-5" target="Mkz1561AUryzhJ5JRjOw-9" edge="1">
          <mxGeometry relative="1" as="geometry" />
        </mxCell>
        <mxCell id="Mkz1561AUryzhJ5JRjOw-4" value="Register" style="edgeLabel;html=1;align=center;verticalAlign=middle;resizable=0;points=[];fontSize=15;" parent="Mkz1561AUryzhJ5JRjOw-3" vertex="1" connectable="0">
          <mxGeometry x="-0.2134" y="-1" relative="1" as="geometry">
            <mxPoint as="offset" />
          </mxGeometry>
        </mxCell>
        <mxCell id="Mkz1561AUryzhJ5JRjOw-5" value="" style="rounded=0;whiteSpace=wrap;html=1;sketch=0;fillColor=none;dashed=1;" parent="Mkz1561AUryzhJ5JRjOw-1" vertex="1">
          <mxGeometry x="263" y="91" width="859" height="520" as="geometry" />
        </mxCell>
        <mxCell id="Mkz1561AUryzhJ5JRjOw-6" value="listen" style="edgeStyle=orthogonalEdgeStyle;rounded=0;orthogonalLoop=1;jettySize=auto;html=1;entryX=1;entryY=0.75;entryDx=0;entryDy=0;fontSize=15;endSize=6;strokeWidth=3;fillColor=#fa6800;strokeColor=#C73500;" parent="Mkz1561AUryzhJ5JRjOw-1" edge="1">
          <mxGeometry relative="1" as="geometry">
            <Array as="points">
              <mxPoint x="1046" y="232" />
            </Array>
            <mxPoint x="1045.9999999999995" y="286" as="sourcePoint" />
          </mxGeometry>
        </mxCell>
        <mxCell id="Mkz1561AUryzhJ5JRjOw-9" value="Eureka (Discovery server)" style="shape=image;verticalLabelPosition=bottom;labelBackgroundColor=default;verticalAlign=top;aspect=fixed;imageAspect=0;image=https://pbs.twimg.com/profile_images/1235868806079057921/fTL08u_H_400x400.png;imageBorder=default;" parent="Mkz1561AUryzhJ5JRjOw-1" vertex="1">
          <mxGeometry x="437" y="685" width="83" height="83" as="geometry" />
        </mxCell>
        <mxCell id="Mkz1561AUryzhJ5JRjOw-10" style="edgeStyle=orthogonalEdgeStyle;rounded=0;orthogonalLoop=1;jettySize=auto;html=1;fontSize=15;strokeWidth=1;fillColor=#a0522d;strokeColor=#6D1F00;shape=link;" parent="Mkz1561AUryzhJ5JRjOw-1" source="Mkz1561AUryzhJ5JRjOw-37" edge="1">
          <mxGeometry relative="1" as="geometry">
            <mxPoint x="699" y="161.5000000000001" as="targetPoint" />
          </mxGeometry>
        </mxCell>
        <mxCell id="Mkz1561AUryzhJ5JRjOw-11" style="edgeStyle=orthogonalEdgeStyle;rounded=0;orthogonalLoop=1;jettySize=auto;html=1;fontSize=15;strokeWidth=1;fillColor=#a0522d;strokeColor=#6D1F00;shape=link;" parent="Mkz1561AUryzhJ5JRjOw-1" source="Mkz1561AUryzhJ5JRjOw-16" target="Mkz1561AUryzhJ5JRjOw-18" edge="1">
          <mxGeometry relative="1" as="geometry" />
        </mxCell>
        <mxCell id="Mkz1561AUryzhJ5JRjOw-12" style="edgeStyle=orthogonalEdgeStyle;rounded=0;orthogonalLoop=1;jettySize=auto;html=1;fontSize=15;endSize=6;strokeWidth=2;strokeColor=#001DBC;fillColor=#0050ef;" parent="Mkz1561AUryzhJ5JRjOw-1" edge="1">
          <mxGeometry relative="1" as="geometry">
            <mxPoint x="502.19" y="488" as="sourcePoint" />
            <mxPoint x="502.19" y="203" as="targetPoint" />
          </mxGeometry>
        </mxCell>
        <mxCell id="Mkz1561AUryzhJ5JRjOw-13" value="HTTP" style="edgeLabel;html=1;align=center;verticalAlign=middle;resizable=0;points=[];fontSize=15;" parent="Mkz1561AUryzhJ5JRjOw-12" vertex="1" connectable="0">
          <mxGeometry x="-0.35" y="1" relative="1" as="geometry">
            <mxPoint x="-1" y="-56" as="offset" />
          </mxGeometry>
        </mxCell>
        <mxCell id="PV4jSnhk1A6-MapW2e3p-5" style="edgeStyle=orthogonalEdgeStyle;rounded=0;orthogonalLoop=1;jettySize=auto;html=1;exitX=0.75;exitY=0;exitDx=0;exitDy=0;entryX=0;entryY=0.5;entryDx=0;entryDy=0;" parent="Mkz1561AUryzhJ5JRjOw-1" source="Mkz1561AUryzhJ5JRjOw-16" target="PV4jSnhk1A6-MapW2e3p-3" edge="1">
          <mxGeometry relative="1" as="geometry" />
        </mxCell>
        <mxCell id="Mkz1561AUryzhJ5JRjOw-16" value="School" style="shape=image;verticalLabelPosition=bottom;labelBackgroundColor=default;verticalAlign=top;aspect=fixed;imageAspect=0;image=https://pbs.twimg.com/profile_images/1235868806079057921/fTL08u_H_400x400.png;imageBorder=default;" parent="Mkz1561AUryzhJ5JRjOw-1" vertex="1">
          <mxGeometry x="461" y="488" width="83" height="83" as="geometry" />
        </mxCell>
        <mxCell id="Mkz1561AUryzhJ5JRjOw-18" value="" style="shape=image;verticalLabelPosition=bottom;labelBackgroundColor=default;verticalAlign=top;aspect=fixed;imageAspect=0;image=https://upload.wikimedia.org/wikipedia/commons/thumb/b/ba/Database-postgres.svg/1448px-Database-postgres.svg.png;" parent="Mkz1561AUryzhJ5JRjOw-1" vertex="1">
          <mxGeometry x="699" y="479.6" width="70.63" height="99.8" as="geometry" />
        </mxCell>
        <mxCell id="Mkz1561AUryzhJ5JRjOw-19" value="" style="sketch=0;aspect=fixed;html=1;points=[];align=center;image;fontSize=12;image=img/lib/mscae/Docker.svg;fillColor=none;" parent="Mkz1561AUryzhJ5JRjOw-1" vertex="1">
          <mxGeometry x="739" y="547" width="50" height="41" as="geometry" />
        </mxCell>
        <mxCell id="Mkz1561AUryzhJ5JRjOw-25" style="edgeStyle=orthogonalEdgeStyle;rounded=0;orthogonalLoop=1;jettySize=auto;html=1;entryX=0.5;entryY=1;entryDx=0;entryDy=0;strokeColor=default;strokeWidth=2;fontSize=22;endSize=6;" parent="Mkz1561AUryzhJ5JRjOw-1" source="Mkz1561AUryzhJ5JRjOw-26" target="Mkz1561AUryzhJ5JRjOw-49" edge="1">
          <mxGeometry relative="1" as="geometry" />
        </mxCell>
        <mxCell id="Mkz1561AUryzhJ5JRjOw-26" value="Internet" style="outlineConnect=0;dashed=0;verticalLabelPosition=bottom;verticalAlign=top;align=center;html=1;shape=mxgraph.aws3.internet_3;fillColor=#D2D3D3;gradientColor=none;sketch=0;fontSize=15;" parent="Mkz1561AUryzhJ5JRjOw-1" vertex="1">
          <mxGeometry x="8" y="324" width="79.5" height="54" as="geometry" />
        </mxCell>
        <mxCell id="Mkz1561AUryzhJ5JRjOw-28" value="" style="endArrow=classic;html=1;rounded=0;fontSize=15;endSize=6;entryX=0;entryY=0.75;entryDx=0;entryDy=0;strokeWidth=3;strokeColor=#fcb603;fillColor=#ffcd28;gradientColor=#ffa500;exitX=0;exitY=0.5;exitDx=0;exitDy=0;" parent="Mkz1561AUryzhJ5JRjOw-1" source="Mkz1561AUryzhJ5JRjOw-5" target="Mkz1561AUryzhJ5JRjOw-37" edge="1">
          <mxGeometry width="50" height="50" relative="1" as="geometry">
            <mxPoint x="267" y="350" as="sourcePoint" />
            <mxPoint x="317" y="300" as="targetPoint" />
          </mxGeometry>
        </mxCell>
        <mxCell id="Mkz1561AUryzhJ5JRjOw-29" value="/students" style="edgeLabel;html=1;align=center;verticalAlign=middle;resizable=0;points=[];fontSize=15;" parent="Mkz1561AUryzhJ5JRjOw-28" vertex="1" connectable="0">
          <mxGeometry x="-0.5046" y="1" relative="1" as="geometry">
            <mxPoint as="offset" />
          </mxGeometry>
        </mxCell>
        <mxCell id="Mkz1561AUryzhJ5JRjOw-30" value="" style="endArrow=classic;html=1;rounded=0;fontSize=15;endSize=6;exitX=1;exitY=0.5;exitDx=0;exitDy=0;strokeWidth=3;strokeColor=#fcb603;fillColor=#ffcd28;gradientColor=#ffa500;" parent="Mkz1561AUryzhJ5JRjOw-1" target="Mkz1561AUryzhJ5JRjOw-16" edge="1">
          <mxGeometry width="50" height="50" relative="1" as="geometry">
            <mxPoint x="260.99999999999955" y="353" as="sourcePoint" />
            <mxPoint x="367.32" y="342" as="targetPoint" />
          </mxGeometry>
        </mxCell>
        <mxCell id="Mkz1561AUryzhJ5JRjOw-31" value="/schools" style="edgeLabel;html=1;align=center;verticalAlign=middle;resizable=0;points=[];fontSize=15;" parent="Mkz1561AUryzhJ5JRjOw-30" vertex="1" connectable="0">
          <mxGeometry x="0.2804" y="-3" relative="1" as="geometry">
            <mxPoint x="-82" y="-69" as="offset" />
          </mxGeometry>
        </mxCell>
        <mxCell id="PV4jSnhk1A6-MapW2e3p-4" style="edgeStyle=orthogonalEdgeStyle;rounded=0;orthogonalLoop=1;jettySize=auto;html=1;exitX=0.75;exitY=1;exitDx=0;exitDy=0;entryX=0;entryY=0.25;entryDx=0;entryDy=0;" parent="Mkz1561AUryzhJ5JRjOw-1" source="Mkz1561AUryzhJ5JRjOw-37" target="PV4jSnhk1A6-MapW2e3p-3" edge="1">
          <mxGeometry relative="1" as="geometry" />
        </mxCell>
        <mxCell id="Mkz1561AUryzhJ5JRjOw-37" value="Student" style="shape=image;verticalLabelPosition=bottom;labelBackgroundColor=default;verticalAlign=top;aspect=fixed;imageAspect=0;image=https://pbs.twimg.com/profile_images/1235868806079057921/fTL08u_H_400x400.png;imageBorder=default;" parent="Mkz1561AUryzhJ5JRjOw-1" vertex="1">
          <mxGeometry x="461" y="120" width="83" height="83" as="geometry" />
        </mxCell>
        <mxCell id="Mkz1561AUryzhJ5JRjOw-41" style="edgeStyle=orthogonalEdgeStyle;rounded=0;orthogonalLoop=1;jettySize=auto;html=1;entryX=0.77;entryY=0.999;entryDx=0;entryDy=0;entryPerimeter=0;dashed=1;strokeColor=default;strokeWidth=2;fontSize=15;endSize=6;" parent="Mkz1561AUryzhJ5JRjOw-1" source="Mkz1561AUryzhJ5JRjOw-44" target="Mkz1561AUryzhJ5JRjOw-5" edge="1">
          <mxGeometry relative="1" as="geometry" />
        </mxCell>
        <mxCell id="Mkz1561AUryzhJ5JRjOw-42" value="Pull configuration" style="edgeLabel;html=1;align=center;verticalAlign=middle;resizable=0;points=[];fontSize=15;" parent="Mkz1561AUryzhJ5JRjOw-41" vertex="1" connectable="0">
          <mxGeometry x="0.0577" y="1" relative="1" as="geometry">
            <mxPoint as="offset" />
          </mxGeometry>
        </mxCell>
        <mxCell id="Mkz1561AUryzhJ5JRjOw-43" value="" style="group" parent="Mkz1561AUryzhJ5JRjOw-1" vertex="1" connectable="0">
          <mxGeometry x="882" y="685" width="164.48000000000002" height="83" as="geometry" />
        </mxCell>
        <mxCell id="Mkz1561AUryzhJ5JRjOw-44" value="Config server" style="shape=image;verticalLabelPosition=bottom;labelBackgroundColor=default;verticalAlign=top;aspect=fixed;imageAspect=0;image=https://pbs.twimg.com/profile_images/1235868806079057921/fTL08u_H_400x400.png;imageBorder=default;" parent="Mkz1561AUryzhJ5JRjOw-43" vertex="1">
          <mxGeometry width="83" height="83" as="geometry" />
        </mxCell>
        <mxCell id="Mkz1561AUryzhJ5JRjOw-45" value="" style="shape=image;verticalLabelPosition=bottom;labelBackgroundColor=default;verticalAlign=top;aspect=fixed;imageAspect=0;image=https://cdn-icons-png.flaticon.com/512/25/25231.png;" parent="Mkz1561AUryzhJ5JRjOw-43" vertex="1">
          <mxGeometry x="90" y="27.129999999999995" width="29" height="29" as="geometry" />
        </mxCell>
        <mxCell id="Mkz1561AUryzhJ5JRjOw-46" value="" style="sketch=0;aspect=fixed;pointerEvents=1;shadow=0;dashed=0;html=1;strokeColor=none;labelPosition=center;verticalLabelPosition=bottom;verticalAlign=top;align=center;fillColor=#00188D;shape=mxgraph.azure.code_file" parent="Mkz1561AUryzhJ5JRjOw-43" vertex="1">
          <mxGeometry x="133.22000000000003" y="24.879999999999995" width="31.26" height="33.25" as="geometry" />
        </mxCell>
        <mxCell id="Mkz1561AUryzhJ5JRjOw-47" style="edgeStyle=orthogonalEdgeStyle;rounded=0;orthogonalLoop=1;jettySize=auto;html=1;dashed=1;strokeColor=default;strokeWidth=2;fontSize=15;endSize=6;" parent="Mkz1561AUryzhJ5JRjOw-1" source="Mkz1561AUryzhJ5JRjOw-44" target="Mkz1561AUryzhJ5JRjOw-9" edge="1">
          <mxGeometry relative="1" as="geometry" />
        </mxCell>
        <mxCell id="Mkz1561AUryzhJ5JRjOw-48" value="Pull configuration" style="edgeLabel;html=1;align=center;verticalAlign=middle;resizable=0;points=[];fontSize=22;" parent="Mkz1561AUryzhJ5JRjOw-47" vertex="1" connectable="0">
          <mxGeometry x="0.2079" y="1" relative="1" as="geometry">
            <mxPoint x="32" y="-1" as="offset" />
          </mxGeometry>
        </mxCell>
        <mxCell id="Mkz1561AUryzhJ5JRjOw-49" value="API Gateway" style="rounded=0;labelBackgroundColor=none;labelBorderColor=none;sketch=0;strokeColor=#006EAF;fontSize=22;fillColor=#1ba1e2;html=1;whiteSpace=wrap;rotation=90;fontColor=#ffffff;fontStyle=1" parent="Mkz1561AUryzhJ5JRjOw-1" vertex="1">
          <mxGeometry x="-48.25" y="322.25" width="522" height="57.5" as="geometry" />
        </mxCell>
        <mxCell id="Mkz1561AUryzhJ5JRjOw-50" value="" style="sketch=0;outlineConnect=0;dashed=0;verticalLabelPosition=bottom;verticalAlign=top;align=center;html=1;fontSize=12;fontStyle=0;aspect=fixed;pointerEvents=1;shape=mxgraph.aws4.gateway_load_balancer;labelBackgroundColor=none;labelBorderColor=none;" parent="Mkz1561AUryzhJ5JRjOw-1" vertex="1">
          <mxGeometry x="189.75" y="228" width="46" height="46" as="geometry" />
        </mxCell>
        <mxCell id="WYsTmNUXfwcSGCrvJzmU-0" value="" style="shape=image;verticalLabelPosition=bottom;labelBackgroundColor=default;verticalAlign=top;aspect=fixed;imageAspect=0;image=https://upload.wikimedia.org/wikipedia/commons/thumb/b/ba/Database-postgres.svg/1448px-Database-postgres.svg.png;" parent="Mkz1561AUryzhJ5JRjOw-1" vertex="1">
          <mxGeometry x="695" y="107.30000000000001" width="70.63" height="99.8" as="geometry" />
        </mxCell>
        <mxCell id="WYsTmNUXfwcSGCrvJzmU-1" value="" style="sketch=0;aspect=fixed;html=1;points=[];align=center;image;fontSize=12;image=img/lib/mscae/Docker.svg;fillColor=none;" parent="Mkz1561AUryzhJ5JRjOw-1" vertex="1">
          <mxGeometry x="735" y="174.7" width="50" height="41" as="geometry" />
        </mxCell>
        <mxCell id="PV4jSnhk1A6-MapW2e3p-3" value="" style="shape=image;verticalLabelPosition=bottom;labelBackgroundColor=default;verticalAlign=top;aspect=fixed;imageAspect=0;image=https://avatars.githubusercontent.com/u/11860887?s=280&amp;v=4;" parent="Mkz1561AUryzhJ5JRjOw-1" vertex="1">
          <mxGeometry x="873" y="299" width="104" height="104" as="geometry" />
        </mxCell>
      </root>
    </mxGraphModel>
  </diagram>
  <diagram name="Page-3" id="kh5PcWv0WvcM_6nEDBB1">
    <mxGraphModel dx="1659" dy="674" grid="0" gridSize="10" guides="1" tooltips="1" connect="1" arrows="1" fold="1" page="0" pageScale="1" pageWidth="1169" pageHeight="827" math="0" shadow="0">
      <root>
        <mxCell id="0" />
        <mxCell id="1" parent="0" />
        <mxCell id="WWQ-MBUYeXolELqLjDh3-1" value="Student" style="swimlane;fontStyle=0;childLayout=stackLayout;horizontal=1;startSize=26;fillColor=none;horizontalStack=0;resizeParent=1;resizeParentMax=0;resizeLast=0;collapsible=1;marginBottom=0;whiteSpace=wrap;html=1;" parent="1" vertex="1">
          <mxGeometry x="-137" y="28" width="140" height="130" as="geometry" />
        </mxCell>
        <mxCell id="WWQ-MBUYeXolELqLjDh3-2" value="id" style="text;strokeColor=none;fillColor=none;align=left;verticalAlign=top;spacingLeft=4;spacingRight=4;overflow=hidden;rotatable=0;points=[[0,0.5],[1,0.5]];portConstraint=eastwest;whiteSpace=wrap;html=1;" parent="WWQ-MBUYeXolELqLjDh3-1" vertex="1">
          <mxGeometry y="26" width="140" height="26" as="geometry" />
        </mxCell>
        <mxCell id="WWQ-MBUYeXolELqLjDh3-3" value="firstname" style="text;strokeColor=none;fillColor=none;align=left;verticalAlign=top;spacingLeft=4;spacingRight=4;overflow=hidden;rotatable=0;points=[[0,0.5],[1,0.5]];portConstraint=eastwest;whiteSpace=wrap;html=1;" parent="WWQ-MBUYeXolELqLjDh3-1" vertex="1">
          <mxGeometry y="52" width="140" height="26" as="geometry" />
        </mxCell>
        <mxCell id="WWQ-MBUYeXolELqLjDh3-4" value="lastname" style="text;strokeColor=none;fillColor=none;align=left;verticalAlign=top;spacingLeft=4;spacingRight=4;overflow=hidden;rotatable=0;points=[[0,0.5],[1,0.5]];portConstraint=eastwest;whiteSpace=wrap;html=1;" parent="WWQ-MBUYeXolELqLjDh3-1" vertex="1">
          <mxGeometry y="78" width="140" height="26" as="geometry" />
        </mxCell>
        <mxCell id="WWQ-MBUYeXolELqLjDh3-9" value="email" style="text;strokeColor=none;fillColor=none;align=left;verticalAlign=top;spacingLeft=4;spacingRight=4;overflow=hidden;rotatable=0;points=[[0,0.5],[1,0.5]];portConstraint=eastwest;whiteSpace=wrap;html=1;" parent="WWQ-MBUYeXolELqLjDh3-1" vertex="1">
          <mxGeometry y="104" width="140" height="26" as="geometry" />
        </mxCell>
        <mxCell id="WWQ-MBUYeXolELqLjDh3-5" value="School" style="swimlane;fontStyle=0;childLayout=stackLayout;horizontal=1;startSize=26;fillColor=none;horizontalStack=0;resizeParent=1;resizeParentMax=0;resizeLast=0;collapsible=1;marginBottom=0;whiteSpace=wrap;html=1;" parent="1" vertex="1">
          <mxGeometry x="102" y="134" width="140" height="104" as="geometry" />
        </mxCell>
        <mxCell id="WWQ-MBUYeXolELqLjDh3-6" value="id" style="text;strokeColor=none;fillColor=none;align=left;verticalAlign=top;spacingLeft=4;spacingRight=4;overflow=hidden;rotatable=0;points=[[0,0.5],[1,0.5]];portConstraint=eastwest;whiteSpace=wrap;html=1;" parent="WWQ-MBUYeXolELqLjDh3-5" vertex="1">
          <mxGeometry y="26" width="140" height="26" as="geometry" />
        </mxCell>
        <mxCell id="WWQ-MBUYeXolELqLjDh3-7" value="name" style="text;strokeColor=none;fillColor=none;align=left;verticalAlign=top;spacingLeft=4;spacingRight=4;overflow=hidden;rotatable=0;points=[[0,0.5],[1,0.5]];portConstraint=eastwest;whiteSpace=wrap;html=1;" parent="WWQ-MBUYeXolELqLjDh3-5" vertex="1">
          <mxGeometry y="52" width="140" height="26" as="geometry" />
        </mxCell>
        <mxCell id="WWQ-MBUYeXolELqLjDh3-8" value="email" style="text;strokeColor=none;fillColor=none;align=left;verticalAlign=top;spacingLeft=4;spacingRight=4;overflow=hidden;rotatable=0;points=[[0,0.5],[1,0.5]];portConstraint=eastwest;whiteSpace=wrap;html=1;" parent="WWQ-MBUYeXolELqLjDh3-5" vertex="1">
          <mxGeometry y="78" width="140" height="26" as="geometry" />
        </mxCell>
        <mxCell id="WWQ-MBUYeXolELqLjDh3-10" value="" style="edgeStyle=entityRelationEdgeStyle;fontSize=12;html=1;endArrow=ERoneToMany;rounded=0;entryX=1;entryY=0.5;entryDx=0;entryDy=0;exitX=0;exitY=0.5;exitDx=0;exitDy=0;" parent="1" source="WWQ-MBUYeXolELqLjDh3-7" target="WWQ-MBUYeXolELqLjDh3-1" edge="1">
          <mxGeometry width="100" height="100" relative="1" as="geometry">
            <mxPoint x="135" y="233" as="sourcePoint" />
            <mxPoint x="235" y="133" as="targetPoint" />
          </mxGeometry>
        </mxCell>
      </root>
    </mxGraphModel>
  </diagram>
</mxfile>
